<?xml version="1.0" standalone="no"?>
<!DOCTYPE svg PUBLIC "-//W3C//DTD SVG 1.1//EN" "http://www.w3.org/Graphics/SVG/1.1/DTD/svg11.dtd" >
<svg xmlns="http://www.w3.org/2000/svg" xmlns:xlink="http://www.w3.org/1999/xlink" version="1.1">
<metadata></metadata>
<defs>
<font id="dirtyline_36daysoftype_2022Rg" horiz-adv-x="1388" >
<font-face units-per-em="2048" ascent="1536" descent="-512" />
<missing-glyph horiz-adv-x="569" />
<glyph horiz-adv-x="0" />
<glyph horiz-adv-x="0" />
<glyph unicode="&#xd;" horiz-adv-x="681" />
<glyph unicode=" "  horiz-adv-x="569" />
<glyph unicode="&#x09;" horiz-adv-x="569" />
<glyph unicode="&#xa0;" horiz-adv-x="569" />
<glyph unicode="!" horiz-adv-x="380" d="M61 1434h252l-10 -1072h-233zM72 0v221h229l2 -221h-231z" />
<glyph unicode="&#x22;" horiz-adv-x="561" d="M78 1024v512h160v-512h-160zM330 1024v512h159v-512h-159z" />
<glyph unicode="#" horiz-adv-x="1386" d="M14 383v184h299l103 332h-254v184h309l109 351h208l-108 -351h260l109 351h208l-108 -351h209v-184h-264l-103 -332h219v-184h-276l-117 -383h-209l117 383h-260l-117 -383h-209l117 383h-242zM522 567h260l103 332h-260z" />
<glyph unicode="$" horiz-adv-x="980" d="M31 526h225q2 -87 76 -150t180 -63q95 0 148 28.5t53 102.5q0 57 -33.5 101t-87.5 73.5t-118.5 57.5t-129.5 61t-119 74.5t-87.5 108t-33.5 151.5q0 165 115.5 257.5t296.5 92.5q200 0 308 -110.5t108 -296.5h-225q0 43 -8 75t-28 60.5t-59.5 44t-97.5 16.5 q-80 0 -133 -30.5t-53 -100.5q0 -53 33.5 -96t86.5 -74t117.5 -61.5t129 -66.5t117.5 -79t86.5 -109.5t33.5 -148.5q0 -155 -110.5 -241t-313.5 -86q-120 0 -213.5 33t-150 90.5t-85 129.5t-28.5 156zM436 0v1536h162v-1536h-162z" />
<glyph unicode="%" horiz-adv-x="1234" d="M31 1143q0 131 80.5 211t212.5 80q130 0 210 -80t80 -211q0 -132 -79.5 -212.5t-210.5 -80.5q-132 0 -212.5 80.5t-80.5 212.5zM113 0l807 1432h159l-807 -1432h-159zM133 1143q0 -86 52.5 -138.5t138.5 -52.5q85 0 136.5 52.5t51.5 138.5q0 85 -51.5 136.5t-136.5 51.5 q-86 0 -138.5 -51.5t-52.5 -136.5zM614 293q0 131 80.5 211t212.5 80q131 0 211 -80t80 -211q0 -132 -80 -212.5t-211 -80.5q-132 0 -212.5 80.5t-80.5 212.5zM717 293q0 -86 52 -138.5t138 -52.5q85 0 137 52.5t52 138.5q0 85 -52 136.5t-137 51.5q-86 0 -138 -51.5 t-52 -136.5z" />
<glyph unicode="&#x26;" horiz-adv-x="1304" d="M47 489q0 81 45 159t115 134q-94 145 -94 260q0 179 110 281t283 104l512 7l-6 -226l-504 2q-79 0 -115.5 -46t-36.5 -95q0 -73 98 -200.5t243 -263t335 -290.5q162 115 162 271v166l-547 -4v184l580 4l2 -164v-188q0 -201 -99 -346l320 -238h-387l-102 82 q-168 -98 -414 -98q-96 0 -188 41.5t-160.5 110t-110 162t-41.5 191.5zM100 362q0 -44 38.5 -76t88.5 -47.5t120.5 -25t113 -11t86.5 -1.5q137 0 237 18q-286 228 -432 383q-74 -28 -163 -104t-89 -136z" />
<glyph unicode="'" horiz-adv-x="315" d="M78 1024v512h160v-512h-160z" />
<glyph unicode="(" horiz-adv-x="604" d="M119 125v969q0 200 108 321t262 121v-162q-89 0 -148.5 -70.5t-59.5 -209.5v-969q0 -139 59.5 -210t148.5 -71v-161q-154 0 -262 121t-108 321z" />
<glyph unicode=")" horiz-adv-x="681" d="M119 -156q89 0 149 71t60 210v969q0 139 -60 209.5t-149 70.5v162q154 0 262 -121t108 -321v-969q0 -200 -108 -321t-262 -121v161z" />
<glyph unicode="*" horiz-adv-x="579" d="M23 1016l149 149l-149 150l81 80l127 -127v207h115v-207l127 127l82 -80l-149 -150l149 -149l-82 -80l-127 127v-201h-115v201l-127 -127z" />
<glyph unicode="+" horiz-adv-x="1136" d="M53 432v162h432v430h162v-430h432v-162h-432v-432h-162v432h-432z" />
<glyph unicode="," horiz-adv-x="354" d="M47 0v250h252v-250l-115 -207h-106l119 207h-150z" />
<glyph unicode="-" horiz-adv-x="1007" d="M39 432v162h903v-162h-903z" />
<glyph unicode="." horiz-adv-x="346" d="M47 0v250h252v-250h-252z" />
<glyph unicode="/" horiz-adv-x="1019" d="M31 0l807 1432h159l-807 -1432h-159z" />
<glyph unicode="0" horiz-adv-x="1179" d="M76 0v1434h1032v-1434h-1032zM336 719q0 -207 33 -364.5t93 -243.5t138 -86t138 86t93 243.5t33 364.5q0 206 -33 363t-93 243t-138 86t-138 -86t-93 -243t-33 -363z" />
<glyph unicode="1" horiz-adv-x="1335" d="M78 641v475h246q49 0 88.5 32t62 81.5t34 102.5t11.5 102h25q0 -172 -42 -369t-124 -289q-65 -72 -133 -102t-168 -33zM182 0v18q18 3 43.5 0.5t56.5 1.5t63 8.5t64 21.5t58.5 40.5t47.5 64.5t30 95v1184h379v-1184q9 -54 30 -95t48 -64.5t59 -40.5t64.5 -21.5t64 -8.5 t57 -1.5t43.5 -0.5v-18h-1108z" />
<glyph unicode="2" horiz-adv-x="1120" d="M55 819q0 148 42 267t113 193.5t162 114.5t193 40q101 0 183 -23.5t136 -63t90 -92.5t52 -111t16 -120q0 -76 -18 -152v-884h-965v493q153 0 274.5 19t222.5 63.5t168 114.5t103.5 174.5t36.5 241.5q0 139 -51.5 222t-148.5 83q-76 0 -133.5 -52.5t-85 -131t-27.5 -168.5 q0 -113 50 -158.5t163 -48.5h160v-21h-736zM221 14h305q111 2 170 16.5t117 55.5q54 37 91.5 108.5t57.5 170t28.5 198.5t10.5 225q-59 -175 -184 -343.5t-285 -286t-311 -144.5z" />
<glyph unicode="3" horiz-adv-x="1138" d="M49 565h684v-20q-38 0 -58.5 -0.5t-60.5 -2.5t-64 -6t-59.5 -12t-58 -19.5t-48 -30t-40 -41.5t-24 -55t-9.5 -71q0 -41 20 -89t55 -91.5t88.5 -72.5t113.5 -29q67 0 118 21t78 51.5t44 73t21.5 76.5t4.5 70q0 152 -79 271t-159 147h-510v21l390 413h-428v265h1036 l-635 -678h483q4 -5 23 -26.5t25 -29t22 -28.5t22.5 -32.5t19 -33t17.5 -39.5t11.5 -42t9 -50t2.5 -55q0 -200 -136.5 -310t-383.5 -110q-245 0 -390 150t-145 415z" />
<glyph unicode="4" horiz-adv-x="1492" d="M53 342v238q199 91 328 175.5t213.5 186t123 217.5t48.5 275h291v-852h307v-21q-117 2 -205.5 -49.5t-101.5 -140.5v-131q9 -45 26.5 -81t40 -58.5t49.5 -39.5t54.5 -24.5t56 -12.5t53.5 -4.5t47 -1t37 -0.5v-18h-1020v18q18 3 43.5 0.5t56.5 1.5t63 8.5t64 21.5 t58.5 40.5t47.5 64.5t30 95h2v92h-713zM133 580l633 2v618q-53 -204 -204 -348t-429 -272z" />
<glyph unicode="5" horiz-adv-x="1302" d="M-51 1434h956l234 -594l-357 -9l-233 584h-234l265 -659h524q3 -3 23 -26.5t24.5 -29.5t22 -28t23 -33t18 -33t17.5 -39.5t11.5 -42t9 -50t2.5 -54.5q0 -128 -91.5 -225.5t-234.5 -146t-311 -48.5q-240 0 -387 171t-147 441h684v-20q-55 0 -107.5 -6.5t-111.5 -25.5 t-102.5 -49.5t-72 -83t-28.5 -120.5q0 -112 78 -197t199 -85q67 0 118 21t78 51.5t44 73t21.5 76.5t4.5 70q0 152 -79 271t-159 147h-434z" />
<glyph unicode="6" horiz-adv-x="1048" d="M57 0v1415h908l-144 -401h-489q7 101 140 216q17 16 51 43q67 54 75 72q12 25 -34 35q-42 9 -138 9h-143l2 -1354h20v756q32 57 120.5 98t174.5 41q192 0 301 -105.5t109 -318.5q0 -123 -39 -216.5t-97.5 -147t-139.5 -87t-152.5 -44.5t-149.5 -11h-375zM393 446 q0 -130 80 -210t211 -80q128 0 209.5 87.5t81.5 213.5q0 124 -80.5 202t-210.5 78t-210.5 -80.5t-80.5 -210.5z" />
<glyph unicode="7" horiz-adv-x="1226" d="M63 971v463h1143q-60 -145 -150 -303.5t-162.5 -277t-140.5 -251.5t-106.5 -284.5t-38.5 -317.5h-495q3 89 45 184.5t109.5 181t152.5 173t172.5 168t171 158.5t148 151t102.5 140t34.5 131t-55.5 118h-121l-180 -434h-629z" />
<glyph unicode="8" horiz-adv-x="1122" d="M51 475q0 202 135 266q-78 62 -106.5 160t-28.5 246q0 45 5.5 82.5t18.5 66.5t28 52t40 40t48 29t59.5 20t65.5 12.5t75 7t81 3t89 0.5t88.5 -0.5t80.5 -3t75 -7t65 -12.5t59 -20t48 -29t40 -40t28 -52t18.5 -66.5t5.5 -82.5q0 -148 -28.5 -246t-104.5 -160 q133 -63 133 -266q0 -69 -5 -122.5t-19 -107.5t-38 -93.5t-62.5 -74.5t-91.5 -57t-126.5 -34.5t-165.5 -12.5q-93 0 -167 12.5t-127 34.5t-91.5 57t-62.5 74.5t-38 93.5t-19 107.5t-5 122.5zM80 475q0 -54 41.5 -90t151 -58t288.5 -22q140 0 236 12t148 35.5t73.5 52.5 t21.5 70q0 57 -38.5 93t-147 58.5t-293.5 22.5q-136 0 -231 -12t-149 -35.5t-77.5 -54t-23.5 -72.5zM369 1069q-2 -179 41 -273t149 -94q56 0 94.5 25.5t60 76t30.5 114t10 151.5q0 179 -42 272t-149 93q-73 0 -117 -47t-60.5 -124.5t-16.5 -193.5z" />
<glyph unicode="9" horiz-adv-x="1468" d="M-10 0l561 526q-198 9 -317 136.5t-119 330.5q0 211 128 339t339 128t339 -128t128 -339h391l-1002 -993h-448zM487 993q0 -190 26 -306t69 -116t68.5 115.5t25.5 306.5t-25.5 306.5t-68.5 115.5t-69 -116t-26 -306z" />
<glyph unicode=":" horiz-adv-x="393" d="M68 0v250h251v-250h-251zM68 610v250h251v-250h-251z" />
<glyph unicode=";" horiz-adv-x="393" d="M68 610v250h251v-250h-251zM70 0v250h252v-250l-115 -207h-107l119 207h-149z" />
<glyph unicode="&#x3c;" horiz-adv-x="983" d="M39 432v162l903 432v-162l-733 -352l733 -350v-162z" />
<glyph unicode="=" horiz-adv-x="980" d="M39 299v162h903v-162h-903zM39 578v161h903v-161h-903z" />
<glyph unicode="&#x3e;" horiz-adv-x="976" d="M39 0v162l733 350l-733 352v162l903 -432v-162z" />
<glyph unicode="?" horiz-adv-x="741" d="M45 997q0 105 30 189.5t80.5 138t115.5 81.5t137 28q89 0 156 -25t105.5 -67.5t57 -92.5t18.5 -106q0 -102 -39 -209t-107.5 -199.5t-155.5 -167t-191 -117t-205 -42.5v350q212 0 347 56t190 183h-539zM182 0v221h230l2 -221h-232zM303 1159q0 -80 35 -112t115 -35h137 q28 79 28 180q0 100 -36 158.5t-105 58.5q-81 0 -127.5 -75t-46.5 -175z" />
<glyph unicode="@" horiz-adv-x="1851" d="M47 512q0 202 66.5 373.5t184.5 292t286 188.5t364 68q422 0 640 -213.5t218 -626.5q0 -514 -338 -514q-137 0 -208.5 74.5t-71.5 171.5v28h-25q-36 -198 -254 -198q-180 0 -285.5 120t-105.5 304q0 161 103.5 269.5t263.5 108.5h422l2 -624q0 -13 7.5 -34.5t24 -48 t51.5 -45t81 -18.5q100 0 149 93.5t49 300.5q0 377 -171 549t-550 172q-221 0 -391.5 -97.5t-263 -269t-92.5 -389.5q0 -122 25.5 -224t68.5 -174.5t105 -129t130 -92t149 -58t156 -31t156 -8.5h316v-131l-316 -2q-285 0 -496.5 92t-330.5 277.5t-119 445.5zM641 580 q0 -140 85.5 -218.5t227.5 -78.5q116 0 163.5 70.5t47.5 195.5v280l-280 2q-113 1 -178.5 -68t-65.5 -183z" />
<glyph unicode="A" d="M-25 268q0 98 58 201t150.5 194t204 181.5t224 173.5t205.5 159t152 150t61 135q0 26 -9.5 36.5t-29.5 10.5h-1q-42 -1 -114 -57q-72 -58 -152 -140t-161.5 -164t-163.5 -140t-139 -58q-70 0 -110.5 69t-40.5 148q0 102 20.5 194t48.5 138l4 -6q-22 -51 -22 -89v-8 q2 -40 26.5 -66.5t57.5 -39t71 -12.5q80 0 162 26.5t150.5 64.5t134 76t134 64.5t128.5 26.5q40 0 76 -17.5t66 -55.5q30 -39 40 -99q5 -30 6 -65q0 -38 -6 -82q-16 -99 -125.5 -465t-122.5 -416q-36 -143 -36 -227q0 -104 55 -119q10 -3 20 -3q53 0 91 85q43 94 43 196v14 q-3 110 -54 115q-27 3 -44.5 -5.5t-45.5 -41.5l-8 8q75 106 185 180q77 52 127 52q23 0 40 -10q40 -24 55 -70q9 -27 9 -59q-1 -23 -5 -45q-10 -56 -36.5 -118.5t-71 -120.5t-95.5 -105t-112.5 -75t-120.5 -28q-85 0 -176 58t-133 137l299 845h-22q-107 -323 -215 -562 t-208.5 -371t-179.5 -132q-86 0 -154.5 30t-108.5 79t-60.5 106.5t-20.5 118.5zM285 416v-12q0 -62 29 -100q32 -42 96 -42q181 0 340 345q85 186 205 589q5 16 14 47l12 39l-10 10q-73 -76 -166.5 -161t-160 -141.5t-137 -127.5t-114.5 -132.5t-74 -142.5t-34 -171z" />
<glyph unicode="B" horiz-adv-x="1394" d="M-2 -84l76 528h19q49 0 93 13q52 16 93.5 44.5t81 76.5t68.5 96.5t62.5 117t57.5 125t58 134.5t61 133l200 18q-58 -114 -121.5 -250t-108.5 -239.5t-97.5 -216t-95 -194t-95 -158.5t-104 -124t-114.5 -75.5t-134 -28.5zM166 1180q0 104 21 197.5t51 140.5l14 -5 q-9 -26 -9 -54q1 -14 3 -29q6 -44 22.5 -80.5t48 -61t68.5 -24.5q58 0 122 28t124.5 68.5t124.5 80.5t146 68q79 27 159 27h6q69 0 122 -23.5t84 -59t51 -83.5t27 -90.5t7 -85.5q0 -77 -25 -142.5t-64.5 -110.5t-92 -81t-104.5 -57t-106 -35.5t-91.5 -20t-65.5 -6.5l2 -10 q14 0 58.5 2.5t82.5 4.5h19q31 0 73 -4q54 -4 97.5 -16t90 -39t77.5 -66.5t51 -103.5t20 -147q0 -104 -34.5 -187.5t-92 -136t-132.5 -86.5t-155 -44q-44 -6 -89 -6q-36 0 -72 4q-81 8 -149.5 33.5t-120.5 68t-74 96.5q-16 39 -16 82q0 44 17 92q34 96 108 170t164 131 t170 59h5q77 0 121 -48q18 -23 18 -58q0 -49 -34 -123q-60 -127 -154 -221l-8 7q29 35 35.5 55t-0.5 45q-11 41 -84 41q-16 0 -35 -2q-108 -11 -205 -67q-94 -55 -94 -111q0 -5 1 -11q3 -15 13 -30q33 -47 105 -55q17 -2 34 -2q56 0 118 20q80 26 160.5 83t129.5 130 q30 44 50 100.5t23 112.5q1 10 1 20q0 45 -12 84q-14 47 -55 76q-38 27 -97 27h-8q-28 -1 -63.5 -7t-58.5 -11.5t-43.5 -6.5t-30 9.5t-7.5 35.5t16.5 34.5t38 9.5t52 -1.5t59.5 7t59.5 29.5t53.5 72.5t39 129.5q11 58 11 105v23q-4 56 -15.5 98t-33.5 72t-44.5 49.5t-49 31 t-47 16t-37.5 4.5q-62 0 -117.5 -25t-97 -65t-79 -88.5t-69.5 -96.5t-61.5 -88t-62 -65t-65.5 -25t-56.5 20.5t-35 55t-16.5 70.5t-5 76z" />
<glyph unicode="C" horiz-adv-x="1081" d="M23 612v588q0 40 6.5 80t25 84.5t47.5 78t79 55.5t114 22h5q74 0 140 -28q68 -29 115.5 -70.5t91 -83t94.5 -70.5t105 -29q45 0 80 39q36 40 46 92q5 24 5 49q0 28 -6 56l12 4q28 -46 49 -134t21 -184q0 -52 -8.5 -96.5t-34.5 -79.5t-66 -35q-59 0 -106.5 33.5t-76 83 t-58 108t-54.5 108t-64 83t-87 33.5q-22 0 -49.5 -10.5t-59 -33t-54 -69.5t-26.5 -110v-639q0 -132 47.5 -247t134 -186t191.5 -71q34 0 76.5 18.5t89.5 60.5t86 101.5t64.5 152t25.5 201.5h16v-567h-356q-188 0 -338 75.5t-236.5 216t-86.5 320.5z" />
<glyph unicode="D" horiz-adv-x="1284" d="M10 -2l2 338h12q74 0 140 69q72 75 127 195l280 621h271q-56 -108 -116.5 -237.5t-104 -228t-93.5 -205.5t-91 -184.5t-91 -150.5t-99 -118t-109.5 -72t-127.5 -27zM88 1200q0 99 21 188.5t51 133.5l12 -4q-6 -28 -6 -57q0 -25 4 -49q10 -53 46.5 -92.5t82.5 -39.5 q55 0 116 27t118.5 65t118.5 76t139 64q75 26 151 26h6q65 0 116 -22t80 -54.5t48.5 -74.5t26 -77.5t6.5 -68.5l2 -952q0 -290 -394 -290q-19 0 -40 1h-293v387h49q26 -2 61 -60t63.5 -126t62.5 -124.5t59 -56.5q78 0 99 52.5t21 224.5l-4 922q0 101 -50.5 153.5 t-121.5 52.5q-67 0 -128.5 -32.5t-105 -80.5t-86.5 -105t-75.5 -105t-70.5 -80.5t-74 -32.5q-41 0 -67.5 35.5t-35 80t-8.5 95.5z" />
<glyph unicode="E" horiz-adv-x="1239" d="M6 412q0 73 24 133t65 99t94.5 70t113 46.5t121.5 27t118 12.5t104 4q20 1 38 1q23 0 41 -2h11.5h8.5h9v12q-29 1 -53.5 2.5t-80 7t-102 13.5t-109.5 24t-113 36t-102 51t-86.5 69t-56.5 90t-22 113q0 35 6.5 72t25 80t47.5 76t79.5 55t115.5 22h6q77 0 151 -26 q78 -26 139 -64t118 -76t118.5 -65t116.5 -27q46 0 87 38.5t53 91.5q5 19 5 39q0 34 -14 70l9 2q28 -44 48.5 -132.5t20.5 -186.5q0 -38 -5 -72.5t-16.5 -67.5t-33.5 -53t-53 -20t-62.5 23.5t-60 61t-59.5 83t-67 91t-75.5 83t-92 61t-110.5 23.5q-18 0 -38 -2.5t-48 -9.5 t-51 -20.5t-47 -35t-34.5 -52t-14.5 -73.5q-1 -9 -1 -18q0 -36 13 -80q22 -87 69 -142t104 -76q58 -20 123 -28q46 -5 91 -6q18 0 34 1q60 3 110 3q2 0 3 1q47 0 75 -14q30 -14 30 -48q0 -31 -21.5 -45.5t-59.5 -14.5t-76 5t-84.5 12.5t-71.5 7.5h-4q-75 0 -133 -38 q-60 -40 -88 -101q-25 -53 -25 -118q1 -11 1 -21q4 -78 48 -146q80 -125 191 -202.5t213 -94.5q36 -6 69 -6q63 1 117 21q84 32 119 108q17 37 17 69q0 64 -67 110q-77 52 -190 55h-5q-96 0 -126 -39q-6 -7 -8 -15q-7 -23 -1 -43.5t34 -52.5l-11 -6q-89 90 -144 210 q-32 69 -32 116q0 34 17 55q40 51 122 54h11q76 1 155 -37q84 -40 158.5 -111t100.5 -167q12 -42 12 -85q0 -57 -19 -117q-21 -57 -73.5 -102t-124.5 -71q-72 -25 -159 -39q-60 -9 -123 -10q-27 0 -55 2q-92 6 -182 24.5t-169 58.5t-139.5 92.5t-96 127.5t-35.5 163z" />
<glyph unicode="F" horiz-adv-x="1251" d="M14 -10l2 336v454h363l194 430h269q-94 -182 -203 -430h23q78 0 137.5 -8.5t117 -32.5t94 -64.5t59 -108t22.5 -158.5l-308 4v72v54q-1 44 -5 87.5t-11 63t-21.5 35.5t-33.5 20t-49 4h-41q-142 -318 -207 -434q-123 -218 -250 -286q-71 -38 -152 -38zM33 326 q75 4 143.5 78.5t116.5 185.5l69 155q-136 -5 -204.5 -20.5t-96.5 -48t-28 -94.5v-256zM92 1190q0 97 21 186t49 135l12 -4q-7 -27 -7 -54q-1 -51 25 -105q40 -80 109 -80q55 0 116 27t118.5 65t118.5 76t139 64q75 26 151 26h6q64 0 114.5 -22t80 -54.5t48.5 -74.5 t25.5 -77.5t6.5 -68.5v-146h-312l-2 125q0 99 -43.5 137.5t-117.5 38.5q-67 0 -129.5 -30t-106.5 -75t-88 -97.5t-78 -97.5t-72.5 -75t-74.5 -30q-40 0 -66 35t-34.5 79.5t-8.5 96.5z" />
<glyph unicode="G" horiz-adv-x="1531" d="M35 612v586q0 41 6.5 80.5t25 84.5t47.5 78.5t79 56t114 22.5q66 0 125 -20.5t99.5 -52t82.5 -68.5t75.5 -68.5t78 -52.5t90.5 -21q35 0 70.5 22.5t56.5 57t25 76.5v9q0 37 -27 71l12 4q28 -45 49 -133t21 -185q0 -52 -8 -95.5t-34 -78.5t-67 -35q-51 0 -92.5 24.5 t-68.5 63t-50 85.5t-44.5 94.5t-45 86t-57.5 63t-76 24.5q-17 0 -38.5 -5t-49.5 -20t-51 -37.5t-40.5 -62t-20.5 -90.5v-639q0 -132 47 -248.5t133.5 -189t191.5 -72.5q96 0 167.5 8.5t142 30t120.5 61.5t91.5 101t67 150.5t36.5 207.5h-133q0 170 -21 220t-98 50 q-385 0 -479 -12q-98 -13 -124 -55q-16 -26 -20 -101v-190h-16v381h637q91 0 162.5 -13t134.5 -44t97 -90.5t34 -145.5h-152v-586h-645q-188 0 -338 75.5t-236.5 216t-86.5 320.5z" />
<glyph unicode="H" horiz-adv-x="1357" d="M49 -2l2 350v391h207v695h297v-695h309q47 0 105 -10v705h297v-713h-258q260 -75 260 -397q0 -75 -14.5 -131.5t-41 -91t-63.5 -57.5t-81 -31.5t-94 -12.5q-25 -2 -51.5 -2t-52.5 2h-274l-6 362h45q25 -2 57.5 -56t59.5 -118t59 -117t55 -53q71 0 92 75.5t21 283.5 q0 195 -23 263.5t-90 68.5q-219 0 -311 -2v-125q-2 -114 -33.5 -211.5t-82 -164.5t-116 -115t-135.5 -70.5t-139 -22.5zM72 348q186 3 186 248v86q-94 -18 -140 -48.5t-46 -80.5v-205z" />
<glyph unicode="I" horiz-adv-x="817" d="M-10 1116l409 422l359 -221l-150 -184v-469l-252 -281l252 -152q94 0 197 140l20 -17l-409 -422l-359 222l228 280v795q-45 10 -84 10q-90 0 -191 -139z" />
<glyph unicode="J" horiz-adv-x="815" d="M-25 1202q0 97 21 185.5t49 134.5l12 -4q-8 -28 -8 -54q0 -46 24 -88q38 -67 107 -67q80 0 136.5 24t86.5 57.5t56.5 67.5t66 58t95.5 24q82 0 120 -74q23 -45 23 -120q0 -50 -10 -113v-1094q-3 -171 -109.5 -298t-257.5 -187l-379 227v426h430v832q160 52 231 162 q37 57 37 107q0 22 -7 43q-23 63 -103 67h-6h-2q-43 0 -87 -54q-45 -54 -85 -131.5t-82 -155t-96 -132t-111 -54.5q-49 0 -85 35t-51.5 81.5t-15.5 94.5zM29 109v-218q83 2 177 37.5t163 97.5t69 130v127q-204 -6 -306.5 -46.5t-102.5 -127.5z" />
<glyph unicode="K" horiz-adv-x="1366" d="M-37 1116l408 420l358 -219l-149 -184v-367h272q37 46 54.5 111t19.5 129q1 32 1 66t-1 68q-1 28 -1 54q0 39 2 75q3 60 17.5 109.5t55 80t108.5 36.5l395 2v-16q-70 0 -120.5 -18t-77.5 -49.5t-44 -74t-19 -91.5q-2 -50 -4 -104q0 -16 -1 -33q1 -39 3 -77q2 -25 1 -50 q0 -28 -2 -56l-393 -189h-62q102 -23 204 -70.5t188.5 -112.5t141 -151t54.5 -174q0 -295 -400 -295q-19 0 -40 1h-299v393h8q37 0 68 -38.5t53.5 -93t45.5 -109.5t55 -93.5t71 -38.5q54 0 81 22.5t38.5 79t11.5 168.5q0 69 -9 131.5t-34 128.5t-65 116t-107 87t-154 49 h-116v-75l-252 -281l260 -170l-199 -279l-358 222l227 278v793q-58 12 -86 12q-51 0 -95.5 -37t-92.5 -104z" />
<glyph unicode="L" horiz-adv-x="1253" d="M-25 1135l390 403l344 -211l-144 -178v-447l-239 -270l184 -121q48 -27 104 -31q13 -1 27 -1q41 -1 77 9q48 12 97 30.5t91 31.5q41 12 77 14q2 0 4 1q33 -1 61 -23q30 -24 48 -76l116 -362l-14 -4q-18 56 -40 94.5t-43.5 59t-48.5 27.5t-48 5t-48.5 -13t-44.5 -21.5 t-42 -26t-35 -21.5l-293 236l-172 -238l-344 211l217 268v760q-42 10 -80 10q-49 0 -92.5 -35t-89.5 -98z" />
<glyph unicode="M" horiz-adv-x="1775" d="M53 0v459h13q76 0 148 55q78 60 103 160l189 760h1194l4 -1164q0 -65 -31 -114.5t-79.5 -78t-116 -47t-130.5 -24.5t-133 -6h-1161zM86 174q14 -112 103 -134q82 -21 381 -20h55v439h8q73 1 139 69q68 72 90 177l148 708h-238l-215 -833q-27 -107 -78 -186.5t-116.5 -125 t-133.5 -68t-143 -26.5zM645 174q3 -77 13 -98q17 -36 89 -46q68 -10 377 -10h93q196 0 196 259l-4 1134h-133l-186 -870q-63 -362 -445 -369z" />
<glyph unicode="N" horiz-adv-x="1951" d="M4 -84l78 518h10q60 0 126 32q70 34 134.5 91.5t133 141.5t125 169t115 186t100.5 182t83 167q-54 4 -57 4q-63 0 -120.5 -24t-100.5 -63t-82.5 -85.5t-72.5 -93t-63.5 -85.5t-63 -63t-64.5 -24q-33 0 -56.5 20.5t-35.5 54.5t-17.5 69.5t-5.5 74.5q0 102 22 195t52 139 l12 -4q-8 -25 -8 -52q0 -14 2 -30q6 -44 23.5 -81t48 -61t65.5 -24q48 0 100 20t95.5 50t98.5 65t108 64.5t125.5 49t148.5 19.5q122 -1 214.5 -67t120.5 -183q8 -31 8 -65q0 -95 -58 -213q-31 -60 -97.5 -159t-133.5 -195.5t-131.5 -198.5t-105 -197.5t-40.5 -163.5 q0 -69 37.5 -123.5t107.5 -54.5q94 0 163.5 64.5t108.5 166.5t73.5 246.5t57.5 283t61.5 300t84.5 276.5q24 60 74 108t109.5 76.5t130 47.5t131 26t118.5 7h301l-4 -19h-36.5h-37t-32.5 -0.5t-35 -2t-31.5 -4t-34 -6t-32 -9t-35.5 -13t-35 -16.5q-84 -45 -164 -168.5 t-144 -280.5t-121.5 -314.5t-117.5 -303.5t-111 -215q-200 -274 -444 -274q-43 0 -95.5 13t-109.5 42.5t-103.5 71t-77 105.5t-30.5 138q0 79 34.5 150.5t93 128t129.5 108t149 100t147.5 94.5t128.5 101t88 111q34 66 34 132q0 21 -3 42q-6 37 -51.5 68.5t-113.5 51 t-130.5 31.5t-126.5 19q-56 -111 -121.5 -254.5t-115.5 -260.5t-110 -247.5t-110.5 -231.5t-110.5 -196.5t-117 -157.5t-123 -99.5t-134 -37.5z" />
<glyph unicode="O" horiz-adv-x="1570" d="M-110 1016q8 116 69 196q43 54 93 68q21 6 41 6q29 0 57 -12q48 -20 94 -59.5t81.5 -88.5t59.5 -100h-6q-29 60 -87 82q-28 10 -58 11q-32 0 -68 -13q-68 -24 -121 -90q-43 -53 -60 -115q-11 -41 -12 -82q-1 -21 3 -41q8 -60 41.5 -118.5t86 -105.5t129 -80.5 t166.5 -45.5q-106 26 -106 55q0 138 41 275t111.5 252t166 215t202.5 169t224 108.5t228 39.5q55 0 111.5 -21t108 -61.5t84 -111.5t32.5 -160q0 -104 -45 -205t-121.5 -184.5t-179.5 -155.5t-218.5 -123t-238 -82t-238.5 -37q-1 -28 -1 -54q0 -425 200 -425q47 0 90 14.5 t76.5 37t65 57.5t53 66.5t42.5 75.5t33 72.5t24.5 68.5t16.5 54t10 38q21 84 41 200q81 51 137 96t132 121v-116q-5 -128 -53 -253t-124.5 -223t-169 -173.5t-190.5 -116.5t-184 -41q-107 0 -190.5 39.5t-138.5 112t-87.5 166.5t-46.5 212q-135 43 -233 142 q-98 100 -140 214q-35 97 -36 195q1 17 2 35zM561 458q1 -32 0 -36q169 6 342.5 63.5t317.5 153.5q29 123 43.5 211t15.5 164v8q0 72 -17 116q-18 48 -57 77t-102 36q-20 2 -39 2q-55 -1 -103 -19q-66 -26 -110.5 -75.5t-79 -114t-53.5 -136.5t-27 -137q-6 -48 -7 -91 q0 -15 1 -29l-14 4v11q0 68 12 146q12 84 44.5 175t80.5 162t124 115q68 40 150 39h19q95 -5 169.5 -44.5t118 -101t66 -132.5t23.5 -146q108 149 108 305q0 83 -30.5 148.5t-81 105t-111.5 60t-127 20.5q-140 0 -266.5 -93t-218.5 -249t-146 -355q-13 -50 -22.5 -99 t-14 -82.5t-6.5 -73.5t-2.5 -58t0.5 -50z" />
<glyph unicode="P" horiz-adv-x="1320" d="M53 -70l133 203l154 -63q22 44 34 266q6 101 5 174q0 88 -8 137q-23 136 -96.5 240t-174.5 123l197 243q-155 81 -236 213l236 234l6 -8q-21 -30 -21 -60q0 -56 72 -113q109 -86 312 -131q126 -28 235 -28q92 0 171 20q27 7 52 17l11 -13l-160 -260q-3 -5 -9 -14t-8 -13 t-4.5 -10t-2 -10t2.5 -8q7 -11 57.5 -40t108 -62t112.5 -84t71 -101l-181 -321q-2 -2 -17 -22t-20.5 -26.5t-22.5 -27t-26 -30t-27.5 -27.5t-32 -28t-33 -24.5t-37 -22.5t-39 -16t-42.5 -12q-21 -3 -42 -3q-101 0 -201 79q10 -173 10 -219l-223 -27l329 -141 q10 -5 -12.5 -30.5t-67.5 -75.5t-73 -93zM223 1126q76 -24 171 -129.5t132 -216.5l64 244l20 -4q-26 -95 -40 -176q-11 -66 -11 -133q0 -15 1 -30q3 -82 28.5 -138t85.5 -88q49 -26 119 -26q15 0 32 1q95 6 195 55t131 103q-11 50 -42 88.5t-69.5 62t-76.5 44.5t-69 49.5 t-42 64.5q-4 16 -4 34q0 80 86 202q-48 -3 -94 -3q-300 0 -523 113z" />
<glyph unicode="Q" horiz-adv-x="1413" d="M51 51q0 51 35 113t88 120.5t128.5 123t144.5 115.5t147.5 103.5t126.5 82t92 55.5q47 27 47 58q0 17 -16 36q-161 183 -338 346q-36 -69 -74 -180q-81 -253 -81 -500q0 -28 1 -55l-233 -176q-26 98 -26 237q0 71 7 154q20 242 95 420q29 69 95.5 136.5t148.5 118.5 t175.5 91t175.5 60q81 20 147 20h3q68 -1 100 -25l342 -270q14 -97 14 -200q0 -77 -8 -157q-18 -187 -79 -364t-142 -262q-136 -145 -341 -216q-138 -47 -242 -47q-50 0 -92 11l-156 119q-168 -165 -168 -234h797q188 0 252 125h14l-64 -125l-102 -231h-836 q-17 11 -97.5 189.5t-80.5 207.5zM399 178q49 -133 117 -151q43 -11 84 -11q160 0 296 172q144 184 219 498q49 206 49 383q0 72 -8 139q-26 222 -132 272q-17 8 -35 11q-35 6 -69 6q-93 0 -184 -46q-123 -63 -216 -224l373 -371q12 -12 17 -83q1 -23 1 -46q0 -48 -7 -98 q-9 -73 -30 -86q-95 -59 -228 -160.5t-247 -204.5z" />
<glyph unicode="R" horiz-adv-x="1652" d="M-135 0l4 18l178 5q44 0 79 33t55.5 92t35 130t19 157t6.5 162q1 30 1 61q0 46 -2 94q-3 80 -6 128.5t-6 88.5l263 227l-218 -2q-65 -1 -103.5 -5t-68 -19.5t-44 -29.5t-45.5 -50q-8 -10 -13 -15l-16 12l325 345l1174 2q50 -21 84.5 -67t34.5 -87q0 -32 -11.5 -63.5 t-24.5 -53t-43.5 -53t-47 -46t-56.5 -48.5q-173 -123 -332.5 -206t-209.5 -83l-168 -2q7 -56 37.5 -120.5t78 -125.5t105.5 -118.5t124 -99t130 -66.5q58 -23 114 -23h12q62 2 109 35q44 29 83 72t57 70t49 77l14 -8q-95 -159 -184 -234q-75 -64 -219 -147.5t-179 -83.5 q-64 0 -152.5 66t-164 158t-129 196t-53.5 174q0 35 123 180t217 225h127q53 0 112.5 -1.5t80 -2t48.5 3t44.5 13t41.5 28.5q36 27 41.5 58.5t-13.5 58t-51 48.5q-30 20 -68 32q-32 10 -60 10h-10l-656 -4l-69 -61q1 -44 8 -126.5t15 -162.5t12 -180q3 -75 4 -141v-45 q-2 -86 -18 -172t-45 -149t-82.5 -106.5t-127.5 -52.5h-350z" />
<glyph unicode="S" horiz-adv-x="1304" d="M32 242q18 74 74 143l435 229l14 -16q-122 -58 -179 -137.5t-57 -186.5q0 -150 142 -258q123 -92 287 -110q35 -4 67 -4q119 0 196 56q83 60 83 171q0 84 -34 154t-91 120t-131 93.5t-156 81t-164 75.5t-156 84t-131 99t-91 128.5t-34 165.5q0 44 25.5 91t59.5 84 t91 81.5t96 70t99.5 63t77.5 49.5q40 -88 87 -156.5t94.5 -108.5t95.5 -60q34 -14 66 -13q13 0 25 2q43 8 79 37t62 86t38 135h14l-80 -533q-337 0 -454 170q-34 52 -54 120q-17 57 -17 124q1 12 1 24q4 82 35 154l-168 -112q-32 -26 -49 -60t-20 -56t-3 -54 q0 -85 55.5 -163.5t144 -140.5t195.5 -122.5l214 -121t195.5 -123t144 -141.5t55.5 -165q0 -90 -60.5 -172t-154.5 -140t-206 -101t-215.5 -64t-182.5 -21q-77 0 -152.5 24.5t-137.5 65.5t-106.5 99.5t-62.5 122.5q-9 32 -9 67q-1 34 8 70z" />
<glyph unicode="T" horiz-adv-x="1277" d="M19 1029q0 54 24 112l102 209l7 -2q-17 -30 -20.5 -53.5t2 -38.5t23.5 -25.5t33 -15.5t42 -8t40 -3h37h10q52 0 96.5 16.5t65.5 41.5q41 54 41 155q0 58 -14 131l311 181q-7 -342 -475 -586q194 71 408 127.5t320 77.5t265 49l-356 -459l-8 4q13 18 31.5 64t32.5 100 q7 27 7 50q0 24 -8 44q-14 40 -63 41q-65 0 -137.5 -29.5t-144.5 -83.5t-137.5 -136.5t-115.5 -181t-80 -225t-30 -261.5q0 -318 139 -318q58 0 151 54.5t187 138.5t178 199t121 223l8 -5l-160 -561q-54 -48 -147.5 -75t-196.5 -27q-150 0 -275 58.5t-197.5 161.5t-72.5 228 q0 75 29.5 153t73 142.5t110 133t124.5 117.5t132.5 102.5t118 82t96.5 61.5q15 9 21 13q-91 -46 -226 -124t-219.5 -116.5t-177.5 -56.5q-13 -3 -25 -3q-40 0 -66 28q-36 36 -35 95z" />
<glyph unicode="U" horiz-adv-x="1425" d="M94 1331q0 103 19.5 195.5t46.5 140.5l4 -8q-23 -50 -23 -88q0 -19 6 -35q17 -48 55 -70t87 -22q92 0 174.5 16.5t130 36.5t99.5 36.5t91 16.5v-12q-89 0 -184.5 -128.5t-163 -300t-111.5 -335.5t-44 -244q0 -70 10 -123.5t33.5 -99.5t69 -73t110.5 -33q7 -1 14 -1 q86 0 164 89q84 96 146.5 264.5t106.5 380.5t66 448l369 283l8 -12q-70 -58 -108 -177t-42 -275q-1 -36 -1 -72q1 -121 11 -245q14 -162 44 -339l-289 -312h432l-182 -233h-598l207 233h113l49 64q12 61 12 140v18q-2 90 -8.5 153t-14.5 152.5t-8 157.5q0 155 2 210 q-35 -217 -93.5 -417t-138.5 -372t-187 -275t-224 -103q-59 0 -102 30.5t-64.5 81.5t-31 105t-9.5 115q0 99 23.5 211t55 203.5t88 213t96 195.5t106.5 195q-85 -97 -150 -149t-128 -52q-46 0 -80 36.5t-49 85.5t-15 99z" />
<glyph unicode="V" horiz-adv-x="1779" d="M27 834q7 161 88.5 278.5t238.5 228.5q50 36 116 67t140.5 53t149.5 32q37 5 72 5q38 0 72 -6q68 -10 121 -39t84.5 -89.5t31.5 -146.5q0 -68 -14.5 -135.5t-46 -134t-62.5 -121.5t-83.5 -123.5t-89 -113.5t-98 -118t-92.5 -111q89 14 188 43t204 72.5t199.5 104.5 t169.5 131.5t119 160t44 185.5q0 49 -29.5 98t-72.5 77q-31 21 -68 21q-13 0 -29 -3q-54 -11 -98 -72l-8 4l31 39l237 344q228 -15 228 -197q0 -28 -5 -59q-11 -66 -46 -155t-94.5 -196.5t-136.5 -218t-179.5 -220.5t-216 -202.5t-253 -166t-284.5 -109.5l-221 -55 q-4 -9 -2 -23.5t6 -27.5t2 -25t-14 -16q-23 -6 -35 16t4 51l219 381l113 14q60 89 99 155t78 151.5t58 174t19 183.5q0 126 -51.5 212t-132.5 118q-55 21 -119 21q-31 0 -64 -5q-102 -15 -201 -80q-66 -43 -111 -105.5t-63 -128.5q-12 -45 -12 -89q1 -21 3 -43 q8 -66 41.5 -116t99.5 -80q60 -28 139 -29q8 0 16 1q102 3 217.5 107.5t185.5 228.5l11 -14q-56 -93 -171 -224.5t-206 -205.5q-40 -33 -89.5 -50.5t-99.5 -19.5h-7q-46 0 -88 18q-46 19 -81 56q-34 36 -54 98q-17 54 -17 123v21z" />
<glyph unicode="W" horiz-adv-x="2312" d="M10 852q7 164 90.5 284.5t243.5 233.5q59 42 140 77t171 58q86 22 170 23q3 0 7 -1q88 -1 158 -26t113.5 -91.5t43.5 -168.5q0 -81 -23.5 -165t-54 -148.5t-90.5 -150.5t-99.5 -135t-117 -141t-109.5 -132q106 16 189.5 47t162 89.5t140 146.5t115.5 217t98 302l26 3v-3 l334 9l-430 -566q-48 -63 -62 -119q-7 -28 -7 -50q-1 -25 7 -43q14 -36 43 -63.5t59 -40t54 -13.5q47 -2 92 -2q140 -1 254 23q150 32 236.5 91.5t139 137.5t62.5 162q5 40 5 79q0 44 -6 84q-11 78 -41.5 140t-69.5 96q-49 43 -112 43q-28 -1 -58 -9q-98 -26 -164 -122 l-10 4l332 512q97 -38 153.5 -126t70.5 -201q6 -48 5 -99q-1 -70 -11 -148q-18 -134 -64 -266t-114.5 -255t-149.5 -217t-176 -150q-93 -56 -184 -56h-3q-76 1 -145 39.5t-118.5 104.5t-80.5 155q-31 88 -31 188q0 104 33 214l47 149q-39 -103 -80 -191.5t-107 -193.5 t-140 -184.5t-177.5 -146t-220.5 -95.5l-225 -57q-5 -10 -3.5 -24.5t6 -28t2.5 -25.5t-14 -16q-22 -6 -33 16.5t3 50.5l223 389l115 15q61 91 100.5 158t79.5 154t59 177.5t19 187.5q0 128 -53 216q-52 88 -135 120q-56 22 -122 22q-31 0 -65 -6q-104 -16 -205 -81 q-67 -43 -112 -107t-63 -131q-12 -45 -12 -89q0 -22 3 -45q9 -67 43 -119t101 -83q61 -28 141 -28h16q104 3 221 110t188 232l13 -13q-58 -95 -175.5 -230t-209.5 -210q-49 -40 -111 -58q-40 -12 -79 -12q-21 0 -42 4q-60 10 -109 44q-50 32 -79 104q-25 63 -25 147v23z" />
<glyph unicode="X" horiz-adv-x="1542" d="M-91 -7q-17 30 -17 65q0 46 29 100q54 102 198 200l499 342l-641 734h355l510 -580l231 158q28 19 28 46q0 36 -53 86q-34 32 -163 125q-128 93 -158 141q-12 18 -14 34q-1 5 -1 10q0 36 32 80q36 50 81 88l228 197l4 -11q-7 -6 -18 -16.5t-17 -15.5t-16 -15t-14 -15 t-12 -14.5t-10 -15t-8 -15.5t-5.5 -16.5t-2 -18t1.5 -19.5q6 -47 48 -90t98 -77t112.5 -68.5t98.5 -79t49 -93.5q4 -30 -5 -55t-38.5 -51.5t-55 -44.5t-84.5 -56t-96 -63l-215 -146l723 -823h-360l-586 672l-395 -269q-86 -50 -86 -102q0 -9 2 -18q8 -27 48.5 -24.5 t103.5 24.5t148 45q84 23 182 37q49 7 101 7t107 -7l-192 -465h-13q-8 130 -26 217.5t-43 129.5q-24 41 -56 55q-15 6 -32 7q-18 0 -36 -8q-36 -15 -76.5 -44.5t-80.5 -70.5t-83 -82.5t-81.5 -77.5t-78 -58.5t-70.5 -22.5q-51 0 -79 48z" />
<glyph unicode="Y" horiz-adv-x="1286" d="M18 1319q0 96 19.5 182t46.5 131l4 -6q-21 -49 -21 -85v-7q2 -38 25 -62.5t54.5 -36.5t66.5 -12q93 0 176 16t131 34.5t100 34.5t91 16l-140 -260q-39 0 -79.5 -25t-74.5 -67.5t-64 -98t-47.5 -117t-25.5 -123.5q-5 -29 -5 -58q0 -31 5 -62q10 -58 33 -103.5t70 -75.5 t113 -36q14 -1 28 -1q52 0 92 18q49 23 86.5 79.5t62 159.5t40 245t24.5 347l428 165q-1 -1 -98 -145.5t-163 -263t-66 -168.5q0 -74 23.5 -147.5t58.5 -131t76.5 -123.5t76.5 -123.5t58.5 -130t23.5 -145.5q0 -124 -61 -246l-316 -315q-28 -31 -121 -50.5t-208 -19.5 q-370 0 -375 113q-1 4 -1 9q0 47 77 189q86 157 187 296t130 139q68 -1 119 -3.5t123 -8t100 -7.5l-82 -465q-82 91 -137.5 147t-104 89.5t-81.5 40.5q-9 2 -18 2q-23 0 -48 -13q-33 -18 -59 -52.5t-62 -96.5q-15 -27 -18 -50t7 -39t24.5 -28.5t40 -20.5t46.5 -13.5 t51.5 -8.5t48 -4t42.5 -2q87 -3 159 -3q5 -1 10 -1q67 0 118 7q55 7 98 15.5t71.5 24.5t47.5 32.5t25.5 40t6.5 47t-10 53.5t-24 59.5t-35 64.5q-32 55 -57 110.5t-42 104t-27 106t-16 100.5q-4 37 -4 87v19q1 61 2.5 101.5t9.5 108t14 107t17 116t17 118.5 q-34 -105 -61 -184.5t-60 -165t-63 -148t-65 -123.5t-72 -102t-78.5 -73.5t-89 -47.5t-99.5 -15q-208 0 -208 208q0 72 25 169q69 269 318 688q-213 -227 -317 -227q-46 0 -80 34t-49 80t-15 93z" />
<glyph unicode="Z" horiz-adv-x="1527" d="M70 244q-4 32 -3 66q-1 42 5 86q10 80 32.5 157.5t60.5 147t85 116.5q65 -169 186 -307q187 187 520 577q-31 -2 -100 -2q-65 0 -122.5 21.5t-99 56t-77 75.5t-62 82t-48.5 74t-41 52.5t-35 17.5q-8 -1 -17 -11t-12.5 -25.5t-0.5 -32.5t21 -36.5t50 -33.5 q74 -33 121 -122.5t47 -192.5q0 -99 -43.5 -203t-98.5 -154l-12 15q48 41 58 99q3 16 2 31q0 42 -19 84q-26 57 -70 107.5t-106 81.5t-123 31l205 434q75 -111 267.5 -180.5t367.5 -69.5q70 0 115.5 1t91 7t71 11t57.5 22t49 30.5t46.5 46t48.5 58.5l57 78l39 -4l-235 -305 l-754 -862q123 -87 266 -130q135 -41 249 -41h13q120 2 213 40t127 102q0 61 -16 105t-35 64t-50 31t-44.5 12t-34.5 1q-75 0 -134.5 -19.5t-96.5 -49t-63.5 -70.5t-39 -77.5t-18.5 -76.5l-19 6l144 578q219 -36 311 -105q56 -42 86 -109t36 -162q3 -44 3 -87q1 -51 -3 -102 q-6 -94 -26 -228q-160 -94 -359 -94q-63 -1 -131 9q-279 40 -530 229l-170 -195h-10q-54 0 -94 29q-44 32 -67 87.5t-31 127.5zM96 382q5 -32 27 -49.5t59 -17.5h4q27 0 80 39q-76 82 -147 189q-17 -49 -23 -89q-3 -21 -2 -40q0 -17 2 -32z" />
<glyph unicode="[" horiz-adv-x="473" d="M61 94v1139q0 60 12 107.5t30.5 79t49.5 54t60 34.5t71 18.5t73 8t75 1.5v-162q-11 0 -32 0.5t-31.5 0.5t-29 -1t-28.5 -3.5t-24.5 -7t-22 -11.5t-17 -18t-14 -25t-7.5 -33t-3 -43v-1139q0 -24 3 -43t7.5 -33t14 -25t17 -18t22 -11.5t24.5 -7t28.5 -3.5t29 -1t31.5 0.5 t32 0.5v-162q-44 0 -75 1.5t-73 8t-71 18.5t-60 34.5t-49.5 54t-30.5 79t-12 107.5z" />
<glyph unicode="\" horiz-adv-x="1019" d="M49 1432h160l807 -1432h-160z" />
<glyph unicode="]" horiz-adv-x="569" d="M119 -47q11 0 32 -0.5t31.5 -0.5t29 1t28.5 3.5t24.5 7t22 11.5t17 18t14 25t7.5 33t3 43v1139q0 24 -3 43t-7.5 33t-14 25t-17 18t-22 11.5t-24.5 7t-28.5 3.5t-29 1t-31.5 -0.5t-32 -0.5v162q44 0 75 -1.5t73 -8t70.5 -18.5t59.5 -34.5t49.5 -54t30.5 -79t12 -107.5 v-1139q0 -60 -12 -107.5t-30.5 -79t-49.5 -54t-59.5 -34.5t-70.5 -18.5t-73 -8t-75 -1.5v162z" />
<glyph unicode="^" horiz-adv-x="960" d="M47 889l279 569h311l278 -569h-174l-260 532l-260 -532h-174z" />
<glyph unicode="_" horiz-adv-x="987" d="M39 0h903v-162h-903v162z" />
<glyph unicode="`" horiz-adv-x="403" d="M51 1536h96l213 -301h-96z" />
<glyph unicode="a" horiz-adv-x="989" d="M25 0l223 1434h485l223 -1434h-256l-47 297h-334l-47 -297h-247zM348 492h277l-138 882z" />
<glyph unicode="b" horiz-adv-x="1044" d="M70 0v1434h413q26 2 51 2q72 0 136 -13q86 -17 154 -57t107.5 -111t39.5 -165q0 -73 -23.5 -129.5t-61 -91.5t-88 -57.5t-100 -31t-102.5 -8.5v-4q54 0 106 -9.5t108 -35t98 -65.5t69 -106t27 -151q0 -82 -25.5 -149.5t-70 -114t-106 -78t-132.5 -45.5q-66 -14 -140 -14 h-10h-450zM322 184h200h6q103 0 163 64q61 66 61 184q0 112 -80 179q-78 65 -183 65h-6h-161v-492zM322 860h161q108 0 172 51.5t64 155.5q0 182 -229 182h-7h-161v-389z" />
<glyph unicode="c" horiz-adv-x="1447" d="M51 709q0 215 86 379.5t244.5 255t366.5 90.5q290 0 460 -178.5t170 -469.5h-211q-21 431 -419 431q-221 0 -354.5 -140t-133.5 -368t133.5 -368t354.5 -140q167 0 288 77.5t158 219.5h240q-57 -236 -242.5 -375t-443.5 -139q-208 0 -366.5 90.5t-244.5 255t-86 379.5z " />
<glyph unicode="d" horiz-adv-x="1021" d="M74 0v1434h422q95 0 167 -17t132.5 -58.5t99 -109.5t59.5 -171t21 -242q0 -86 -7.5 -165.5t-26.5 -165t-48.5 -158t-77.5 -138.5t-109.5 -111.5t-147.5 -71.5q-83 -26 -182 -26h-7h-295zM326 184h45h6q65 0 118 21q55 22 91 56t62.5 86.5t40.5 101.5t22 112t10 107t2 98 q0 128 -11.5 217t-30.5 141t-52 80q-33 30 -67 38q-31 8 -76 7h-11h-149v-1065z" />
<glyph unicode="e" horiz-adv-x="1206" d="M51 0v1434h1108v-185h-856v-440h856v-184h-856l-2 -441h864v-184h-1114z" />
<glyph unicode="f" horiz-adv-x="1218" d="M51 0v1434h1108v-185h-856v-440h856v-184h-856l-4 -625h-248z" />
<glyph unicode="g" horiz-adv-x="1402" d="M39 709q0 326 191 525.5t505 199.5h606l-2 -222l-604 5q-220 0 -353.5 -140t-133.5 -368q0 -231 139.5 -369.5t386.5 -138.5q34 0 62 3t64 12.5t64 26.5t57.5 47t50.5 71t36 102t20 137v25h-675v184h895v-809h-220v297q-34 -162 -144.5 -237.5t-278.5 -75.5 q-144 0 -267.5 52.5t-211.5 146.5t-137.5 230t-49.5 296z" />
<glyph unicode="h" horiz-adv-x="1015" d="M51 0v1434h252v-625h406v625h252l2 -1434h-254v625h-404v-625h-254z" />
<glyph unicode="i" horiz-adv-x="446" d="M109 0v1434h251l2 -1434h-253z" />
<glyph unicode="j" horiz-adv-x="612" d="M47 0v195q38 0 60.5 0.5t52.5 4t48 10t38 18t30.5 28.5t18 42t8.5 58v1078h252v-263l2 -559v-262q0 -350 -305 -350h-205z" />
<glyph unicode="k" horiz-adv-x="993" d="M51 0v1434h252v-711l395 711h252l-385 -693h406l-353 -741h-251l292 582h-354v-582h-254z" />
<glyph unicode="l" horiz-adv-x="776" d="M51 0v1434h264l-12 -1239h430l-2 -195h-680z" />
<glyph unicode="m" horiz-adv-x="1464" d="M57 0v1434h467l215 -1375l213 1375h475l-16 -1434h-244v1171l-182 -1171h-485l-187 1200l-14 -1200h-242z" />
<glyph unicode="n" horiz-adv-x="1386" d="M51 0v1434h473l555 -1373v1373h264l-16 -1434h-471l-543 1339l-14 -1339h-248z" />
<glyph unicode="o" horiz-adv-x="1452" d="M31 709q0 326 191 525.5t505 199.5q206 0 363 -90.5t243 -255t86 -379.5t-86 -379.5t-243 -255t-363 -90.5q-314 0 -505 199.5t-191 525.5zM240 709q0 -228 133.5 -368t353.5 -140q218 0 350.5 140t132.5 368t-132.5 368t-350.5 140q-220 0 -353.5 -140t-133.5 -368z" />
<glyph unicode="p" horiz-adv-x="976" d="M51 0v1434h414q81 0 149 -10t132 -36t108.5 -66.5t71 -105.5t26.5 -149q0 -193 -130.5 -293t-356.5 -100h-162l-2 -674h-250zM303 868h162q115 0 175 39t60 148q0 56 -17 93.5t-50 57t-73 26.5q-35 7 -82 7h-13h-162v-371z" />
<glyph unicode="q" horiz-adv-x="1480" d="M51 709q0 215 86 383t245 262t366 94q205 0 363 -94t243.5 -262t85.5 -383t-85.5 -382.5t-243.5 -260.5t-363 -93q-313 0 -505 204.5t-192 531.5zM260 709q0 -229 134.5 -374t353.5 -145q217 0 350 145t133 374t-133.5 375.5t-349.5 146.5q-219 0 -353.5 -146.5 t-134.5 -375.5zM727 -109h819v-192h-819v192z" />
<glyph unicode="r" horiz-adv-x="1071" d="M98 0v1434h414q81 0 149 -10t132 -36t108.5 -66.5t71 -105.5t26.5 -149q0 -158 -89 -254.5t-248 -126.5l335 -686h-256l-329 674h-62l-2 -674h-250zM350 868h162q56 0 95.5 7.5t73 27t50.5 57.5t17 95q0 56 -17 93.5t-51 57.5q-33 18 -73 26q-35 7 -82 7h-13h-162v-371z " />
<glyph unicode="s" horiz-adv-x="1114" d="M47 444h252q2 -98 85.5 -168.5t203.5 -70.5q51 0 88.5 6t70 21.5t49.5 45.5t17 74q0 56 -29.5 101.5t-77.5 75.5t-109.5 60.5t-125.5 56.5t-125.5 64t-109.5 82t-77.5 112.5t-29.5 152.5q0 186 129.5 289.5t333.5 103.5q225 0 346 -124.5t121 -334.5h-252q0 49 -9 85.5 t-31.5 68.5t-67 49t-109.5 18h-10q-84 0 -140 -32q-60 -34 -59 -113q0 -59 37.5 -107.5t97 -84t132 -69.5t145 -74.5t132 -89t97 -123t37.5 -167.5q0 -173 -124.5 -270.5t-352.5 -97.5q-135 0 -240 37t-168 102t-95 146t-32 175z" />
<glyph unicode="t" horiz-adv-x="1011" d="M31 1247v185h942v-185h-344l2 -1247h-254v1247h-346z" />
<glyph unicode="u" horiz-adv-x="1286" d="M90 539v891h250v-867q0 -84 26 -152t69 -110.5t98 -66t112 -24.5h5q54 0 107 22q55 22 98 64t69 111.5t26 155.5v867h250v-891q0 -130 -47.5 -235t-125.5 -170t-178 -101q-100 -37 -204 -37h-3q-102 0 -201 35q-100 35 -178 100t-125.5 171t-47.5 237z" />
<glyph unicode="v" horiz-adv-x="1042" d="M47 1434h248l215 -1375l213 1375h248l-223 -1434h-478z" />
<glyph unicode="w" horiz-adv-x="1515" d="M49 0v1434h242l16 -1348l244 1350h410l245 -1346v1344h242l16 -1434h-497l-215 1178l-213 -1178h-490z" />
<glyph unicode="x" horiz-adv-x="1218" d="M39 0l397 717l-397 717h264l305 -549h15l305 549h264l-397 -717l397 -717h-264l-305 549h-15l-305 -549h-264z" />
<glyph unicode="y" horiz-adv-x="1015" d="M27 1434h258l219 -893l221 893h258l-238 -947h-116v-487h-252v487h-117z" />
<glyph unicode="z" horiz-adv-x="1265" d="M39 483l1098 684v2h-1098v265h1173l2 -488l-1097 -665v-2h1097v-265h-1173z" />
<glyph unicode="{" horiz-adv-x="684" d="M0 535v180h119v379q0 200 108 321t262 121v-162q-89 0 -148.5 -70.5t-59.5 -209.5v-324q0 -64 -42.5 -95.5t-93.5 -31.5v-31q49 -2 92.5 -39t43.5 -98v-350q0 -139 59.5 -210t148.5 -71v-161q-154 0 -262 121t-108 321v410h-119z" />
<glyph unicode="|" horiz-adv-x="344" d="M100 0v1491h146v-1491h-146z" />
<glyph unicode="}" horiz-adv-x="684" d="M141 -156q89 0 149 71t60 210v350q0 61 43 98t92 39v31q-51 0 -93 31.5t-42 95.5v324q0 139 -60 209.5t-149 70.5v162q154 0 262.5 -121t108.5 -321v-379h119v-180h-119v-410q0 -200 -108.5 -321t-262.5 -121v161z" />
<glyph unicode="~" horiz-adv-x="1196" d="M82 438v180q32 61 98.5 85t150.5 18t179.5 -24.5t191.5 -37t179.5 -25t151.5 17t100 83.5v-180q-32 -60 -100 -83.5t-151.5 -17t-179.5 25t-191.5 37t-179.5 24.5t-150.5 -18t-98.5 -85z" />
<glyph unicode="&#xa8;" horiz-adv-x="430" d="M39 1356q0 35 21.5 56.5t56.5 21.5t56.5 -21.5t21.5 -56.5t-21.5 -56.5t-56.5 -21.5t-56.5 21.5t-21.5 56.5zM236 1356q0 35 21 56.5t56 21.5t56.5 -21.5t21.5 -56.5t-21.5 -56.5t-56.5 -21.5t-56 21.5t-21 56.5z" />
<glyph unicode="&#xad;" horiz-adv-x="1007" d="M39 432v162h903v-162h-903z" />
<glyph unicode="&#xb4;" horiz-adv-x="378" d="M51 1235l213 301h96l-213 -301h-96z" />
<glyph unicode="&#xb8;" horiz-adv-x="407" d="M43 -106h80q0 -31 26 -53.5t64 -22.5q70 0 70 32q0 19 -25.5 38t-55 33.5t-51 40.5t-16.5 56l68 -2q-13 -25 -3 -37t36 -26t53 -25t48 -32.5t21 -49.5q0 -41 -39.5 -68.5t-107.5 -27.5q-83 0 -125.5 41t-42.5 103z" />
<glyph unicode="&#xc0;" d="M-25 268q0 98 58 201t150.5 194t204 181.5t224 173.5t205.5 159t152 150t61 135q0 26 -9.5 36.5t-29.5 10.5q-43 1 -115.5 -56.5t-152 -140t-161 -164.5t-163.5 -140t-139 -58q-70 0 -110.5 69t-40.5 148q0 102 20.5 194t48.5 138l4 -6q-24 -56 -21.5 -96.5t26.5 -67 t57 -39t71 -12.5q80 0 162 26.5t150.5 64.5t134 76t134 64.5t128.5 26.5q40 0 76 -17.5t66 -55.5t40.5 -98.5t-0.5 -147.5q-16 -99 -125.5 -465t-122.5 -416q-80 -320 19 -346q66 -18 111.5 82t42.5 210t-54 115q-27 3 -44.5 -5.5t-45.5 -41.5l-8 8q74 106 184.5 180.5 t167.5 41.5q40 -24 55 -70.5t4.5 -103t-37 -119t-71 -120.5t-95.5 -105t-112.5 -75t-120.5 -28q-85 0 -176 58t-133 137l299 845h-22q-107 -323 -215 -562t-208.5 -371t-179.5 -132q-86 0 -154.5 30t-108.5 79t-60.5 106.5t-20.5 118.5zM285 416q-3 -71 29 -112.5t96 -41.5 q181 0 340 345q85 186 205 589q5 16 14 47l12 39l-10 10q-73 -76 -166.5 -161t-160 -141.5t-137 -127.5t-114.5 -132.5t-74 -142.5t-34 -171zM573 1837h97l213 -301h-97z" />
<glyph unicode="&#xc1;" d="M-25 268q0 98 58 201t150.5 194t204 181.5t224 173.5t205.5 159t152 150t61 135q0 26 -9.5 36.5t-29.5 10.5q-43 1 -115.5 -56.5t-152 -140t-161 -164.5t-163.5 -140t-139 -58q-70 0 -110.5 69t-40.5 148q0 102 20.5 194t48.5 138l4 -6q-24 -56 -21.5 -96.5t26.5 -67 t57 -39t71 -12.5q80 0 162 26.5t150.5 64.5t134 76t134 64.5t128.5 26.5q40 0 76 -17.5t66 -55.5t40.5 -98.5t-0.5 -147.5q-16 -99 -125.5 -465t-122.5 -416q-80 -320 19 -346q66 -18 111.5 82t42.5 210t-54 115q-27 3 -44.5 -5.5t-45.5 -41.5l-8 8q74 106 184.5 180.5 t167.5 41.5q40 -24 55 -70.5t4.5 -103t-37 -119t-71 -120.5t-95.5 -105t-112.5 -75t-120.5 -28q-85 0 -176 58t-133 137l299 845h-22q-107 -323 -215 -562t-208.5 -371t-179.5 -132q-86 0 -154.5 30t-108.5 79t-60.5 106.5t-20.5 118.5zM285 416q-3 -71 29 -112.5t96 -41.5 q181 0 340 345q85 186 205 589q5 16 14 47l12 39l-10 10q-73 -76 -166.5 -161t-160 -141.5t-137 -127.5t-114.5 -132.5t-74 -142.5t-34 -171zM573 1536l213 301h97l-213 -301h-97z" />
<glyph unicode="&#xc2;" d="M-25 268q0 98 58 201t150.5 194t204 181.5t224 173.5t205.5 159t152 150t61 135q0 26 -9.5 36.5t-29.5 10.5q-43 1 -115.5 -56.5t-152 -140t-161 -164.5t-163.5 -140t-139 -58q-70 0 -110.5 69t-40.5 148q0 102 20.5 194t48.5 138l4 -6q-24 -56 -21.5 -96.5t26.5 -67 t57 -39t71 -12.5q80 0 162 26.5t150.5 64.5t134 76t134 64.5t128.5 26.5q40 0 76 -17.5t66 -55.5t40.5 -98.5t-0.5 -147.5q-16 -99 -125.5 -465t-122.5 -416q-80 -320 19 -346q66 -18 111.5 82t42.5 210t-54 115q-27 3 -44.5 -5.5t-45.5 -41.5l-8 8q74 106 184.5 180.5 t167.5 41.5q40 -24 55 -70.5t4.5 -103t-37 -119t-71 -120.5t-95.5 -105t-112.5 -75t-120.5 -28q-85 0 -176 58t-133 137l299 845h-22q-107 -323 -215 -562t-208.5 -371t-179.5 -132q-86 0 -154.5 30t-108.5 79t-60.5 106.5t-20.5 118.5zM285 416q-3 -71 29 -112.5t96 -41.5 q181 0 340 345q85 186 205 589q5 16 14 47l12 39l-10 10q-73 -76 -166.5 -161t-160 -141.5t-137 -127.5t-114.5 -132.5t-74 -142.5t-34 -171zM434 1536l213 301h96l213 -301h-96l-164 233l-166 -233h-96z" />
<glyph unicode="&#xc3;" d="M-25 268q0 98 58 201t150.5 194t204 181.5t224 173.5t205.5 159t152 150t61 135q0 26 -9.5 36.5t-29.5 10.5q-43 1 -115.5 -56.5t-152 -140t-161 -164.5t-163.5 -140t-139 -58q-70 0 -110.5 69t-40.5 148q0 102 20.5 194t48.5 138l4 -6q-24 -56 -21.5 -96.5t26.5 -67 t57 -39t71 -12.5q80 0 162 26.5t150.5 64.5t134 76t134 64.5t128.5 26.5q40 0 76 -17.5t66 -55.5t40.5 -98.5t-0.5 -147.5q-16 -99 -125.5 -465t-122.5 -416q-80 -320 19 -346q66 -18 111.5 82t42.5 210t-54 115q-27 3 -44.5 -5.5t-45.5 -41.5l-8 8q74 106 184.5 180.5 t167.5 41.5q40 -24 55 -70.5t4.5 -103t-37 -119t-71 -120.5t-95.5 -105t-112.5 -75t-120.5 -28q-85 0 -176 58t-133 137l299 845h-22q-107 -323 -215 -562t-208.5 -371t-179.5 -132q-86 0 -154.5 30t-108.5 79t-60.5 106.5t-20.5 118.5zM285 416q-3 -71 29 -112.5t96 -41.5 q181 0 340 345q85 186 205 589q5 16 14 47l12 39l-10 10q-73 -76 -166.5 -161t-160 -141.5t-137 -127.5t-114.5 -132.5t-74 -142.5t-34 -171zM514 1559v59q15 28 52 33.5t81.5 -3.5t88.5 -18t81 -3.5t51 32.5v-60q-17 -35 -69.5 -36t-107 14.5t-107 15t-70.5 -33.5z" />
<glyph unicode="&#xc4;" d="M-25 268q0 98 58 201t150.5 194t204 181.5t224 173.5t205.5 159t152 150t61 135q0 26 -9.5 36.5t-29.5 10.5q-43 1 -115.5 -56.5t-152 -140t-161 -164.5t-163.5 -140t-139 -58q-70 0 -110.5 69t-40.5 148q0 102 20.5 194t48.5 138l4 -6q-24 -56 -21.5 -96.5t26.5 -67 t57 -39t71 -12.5q80 0 162 26.5t150.5 64.5t134 76t134 64.5t128.5 26.5q40 0 76 -17.5t66 -55.5t40.5 -98.5t-0.5 -147.5q-16 -99 -125.5 -465t-122.5 -416q-80 -320 19 -346q66 -18 111.5 82t42.5 210t-54 115q-27 3 -44.5 -5.5t-45.5 -41.5l-8 8q74 106 184.5 180.5 t167.5 41.5q40 -24 55 -70.5t4.5 -103t-37 -119t-71 -120.5t-95.5 -105t-112.5 -75t-120.5 -28q-85 0 -176 58t-133 137l299 845h-22q-107 -323 -215 -562t-208.5 -371t-179.5 -132q-86 0 -154.5 30t-108.5 79t-60.5 106.5t-20.5 118.5zM285 416q-3 -71 29 -112.5t96 -41.5 q181 0 340 345q85 186 205 589q5 16 14 47l12 39l-10 10q-73 -76 -166.5 -161t-160 -141.5t-137 -127.5t-114.5 -132.5t-74 -142.5t-34 -171zM518 1618q0 35 21.5 56.5t56.5 21.5t56.5 -21.5t21.5 -56.5t-21.5 -56.5t-56.5 -21.5t-56.5 21.5t-21.5 56.5zM715 1618 q0 35 21.5 56.5t56.5 21.5t56 -21.5t21 -56.5t-21 -56.5t-56 -21.5t-56.5 21.5t-21.5 56.5z" />
<glyph unicode="&#xc5;" d="M-25 268q0 98 58 201t150.5 194t204 181.5t224 173.5t205.5 159t152 150t61 135q0 26 -9.5 36.5t-29.5 10.5q-43 1 -115.5 -56.5t-152 -140t-161 -164.5t-163.5 -140t-139 -58q-70 0 -110.5 69t-40.5 148q0 102 20.5 194t48.5 138l4 -6q-24 -56 -21.5 -96.5t26.5 -67 t57 -39t71 -12.5q80 0 162 26.5t150.5 64.5t134 76t134 64.5t128.5 26.5q40 0 76 -17.5t66 -55.5t40.5 -98.5t-0.5 -147.5q-16 -99 -125.5 -465t-122.5 -416q-80 -320 19 -346q66 -18 111.5 82t42.5 210t-54 115q-27 3 -44.5 -5.5t-45.5 -41.5l-8 8q74 106 184.5 180.5 t167.5 41.5q40 -24 55 -70.5t4.5 -103t-37 -119t-71 -120.5t-95.5 -105t-112.5 -75t-120.5 -28q-85 0 -176 58t-133 137l299 845h-22q-107 -323 -215 -562t-208.5 -371t-179.5 -132q-86 0 -154.5 30t-108.5 79t-60.5 106.5t-20.5 118.5zM285 416q-3 -71 29 -112.5t96 -41.5 q181 0 340 345q85 186 205 589q5 16 14 47l12 39l-10 10q-73 -76 -166.5 -161t-160 -141.5t-137 -127.5t-114.5 -132.5t-74 -142.5t-34 -171zM528 1706q0 75 46.5 121.5t121.5 46.5t121.5 -46.5t46.5 -121.5q0 -76 -46.5 -123t-121.5 -47t-121.5 47t-46.5 123zM582 1706 q0 -54 30.5 -85.5t83.5 -31.5t84 31.5t31 85.5q0 52 -31.5 83.5t-83.5 31.5t-83 -31t-31 -84z" />
<glyph unicode="&#xc7;" horiz-adv-x="1081" d="M23 612v588q0 40 6.5 80t25 84.5t47.5 78t79 55.5t114 22q78 1 145.5 -28t115 -70.5t91 -83t94.5 -70.5t105 -29q45 0 80.5 39t46 91.5t-1.5 105.5l12 4q28 -46 49 -134t21 -184q0 -52 -8.5 -96.5t-34.5 -79.5t-66 -35q-59 0 -106.5 33.5t-76 83t-58 108t-54.5 108 t-64 83t-87 33.5q-22 0 -49.5 -10.5t-59 -33t-54 -69.5t-26.5 -110v-639q0 -132 47.5 -247t134 -186t191.5 -71q34 0 76.5 18.5t89.5 60.5t86 101.5t64.5 152t25.5 201.5h16v-567h-356q-188 0 -338 75.5t-236.5 216t-86.5 320.5zM467 -100h80q0 -31 26 -53.5t64 -22.5 q70 0 70 33q0 19 -25.5 38t-55 33.5t-51 40.5t-16.5 56l68 -2q-13 -25 -3 -37t36 -26t53 -25t48 -32.5t21 -49.5q0 -41 -39.5 -69t-107.5 -28q-83 0 -125.5 41t-42.5 103z" />
<glyph unicode="&#xc8;" horiz-adv-x="1239" d="M6 412q0 73 24 133t65 99t94.5 70t113 46.5t121.5 27t118.5 12.5t104 4t78.5 -1h11.5h8.5h9v12q-29 1 -53.5 2.5t-80 7t-102 13.5t-109.5 24t-113 36t-102 51t-86.5 69t-56.5 90t-22 113q0 35 6.5 72t25 80t47.5 76t79.5 55t115.5 22q79 1 156.5 -25.5t139 -64.5 t118.5 -76t118.5 -65t116.5 -27q46 0 87 38.5t53.5 91.5t-9.5 109l9 2q28 -44 48.5 -132.5t20.5 -186.5q0 -38 -5 -72.5t-16.5 -67.5t-33.5 -53t-53 -20t-62.5 23.5t-60 61t-59.5 83t-67 91t-75.5 83t-92 61t-110.5 23.5q-18 0 -38 -2.5t-48 -9.5t-51 -20.5t-47 -35 t-34.5 -52t-14.5 -73.5t12 -98q22 -87 69 -142t104.5 -76t122.5 -28.5t125.5 -4.5t109.5 3.5t78.5 -13.5t29.5 -48q0 -31 -21.5 -45.5t-59.5 -14.5t-76 5t-84.5 12.5t-71.5 7.5q-77 1 -137 -38.5t-88.5 -100.5t-24 -138.5t48.5 -146.5q80 -125 191 -202.5t212.5 -94.5 t186 14.5t119.5 108.5q50 110 -50 179q-77 52 -190 55q-100 1 -131 -39q-6 -7 -8 -15q-7 -23 -1 -43.5t34 -52.5l-11 -6q-89 91 -144 210.5t-15 170.5t122 54t166 -37.5t158.5 -111t101 -166t-7.5 -202.5q-21 -57 -73.5 -102t-124.5 -71t-159 -39.5t-178.5 -7.5t-181.5 24.5 t-169 58.5t-139.5 92.5t-96 127.5t-35.5 163zM520 1837h96l213 -301h-96z" />
<glyph unicode="&#xc9;" horiz-adv-x="1239" d="M6 412q0 73 24 133t65 99t94.5 70t113 46.5t121.5 27t118.5 12.5t104 4t78.5 -1h11.5h8.5h9v12q-29 1 -53.5 2.5t-80 7t-102 13.5t-109.5 24t-113 36t-102 51t-86.5 69t-56.5 90t-22 113q0 35 6.5 72t25 80t47.5 76t79.5 55t115.5 22q79 1 156.5 -25.5t139 -64.5 t118.5 -76t118.5 -65t116.5 -27q46 0 87 38.5t53.5 91.5t-9.5 109l9 2q28 -44 48.5 -132.5t20.5 -186.5q0 -38 -5 -72.5t-16.5 -67.5t-33.5 -53t-53 -20t-62.5 23.5t-60 61t-59.5 83t-67 91t-75.5 83t-92 61t-110.5 23.5q-18 0 -38 -2.5t-48 -9.5t-51 -20.5t-47 -35 t-34.5 -52t-14.5 -73.5t12 -98q22 -87 69 -142t104.5 -76t122.5 -28.5t125.5 -4.5t109.5 3.5t78.5 -13.5t29.5 -48q0 -31 -21.5 -45.5t-59.5 -14.5t-76 5t-84.5 12.5t-71.5 7.5q-77 1 -137 -38.5t-88.5 -100.5t-24 -138.5t48.5 -146.5q80 -125 191 -202.5t212.5 -94.5 t186 14.5t119.5 108.5q50 110 -50 179q-77 52 -190 55q-100 1 -131 -39q-6 -7 -8 -15q-7 -23 -1 -43.5t34 -52.5l-11 -6q-89 91 -144 210.5t-15 170.5t122 54t166 -37.5t158.5 -111t101 -166t-7.5 -202.5q-21 -57 -73.5 -102t-124.5 -71t-159 -39.5t-178.5 -7.5t-181.5 24.5 t-169 58.5t-139.5 92.5t-96 127.5t-35.5 163zM520 1536l213 301h96l-213 -301h-96z" />
<glyph unicode="&#xca;" horiz-adv-x="1239" d="M6 412q0 73 24 133t65 99t94.5 70t113 46.5t121.5 27t118.5 12.5t104 4t78.5 -1h11.5h8.5h9v12q-29 1 -53.5 2.5t-80 7t-102 13.5t-109.5 24t-113 36t-102 51t-86.5 69t-56.5 90t-22 113q0 35 6.5 72t25 80t47.5 76t79.5 55t115.5 22q79 1 156.5 -25.5t139 -64.5 t118.5 -76t118.5 -65t116.5 -27q46 0 87 38.5t53.5 91.5t-9.5 109l9 2q28 -44 48.5 -132.5t20.5 -186.5q0 -38 -5 -72.5t-16.5 -67.5t-33.5 -53t-53 -20t-62.5 23.5t-60 61t-59.5 83t-67 91t-75.5 83t-92 61t-110.5 23.5q-18 0 -38 -2.5t-48 -9.5t-51 -20.5t-47 -35 t-34.5 -52t-14.5 -73.5t12 -98q22 -87 69 -142t104.5 -76t122.5 -28.5t125.5 -4.5t109.5 3.5t78.5 -13.5t29.5 -48q0 -31 -21.5 -45.5t-59.5 -14.5t-76 5t-84.5 12.5t-71.5 7.5q-77 1 -137 -38.5t-88.5 -100.5t-24 -138.5t48.5 -146.5q80 -125 191 -202.5t212.5 -94.5 t186 14.5t119.5 108.5q50 110 -50 179q-77 52 -190 55q-100 1 -131 -39q-6 -7 -8 -15q-7 -23 -1 -43.5t34 -52.5l-11 -6q-89 91 -144 210.5t-15 170.5t122 54t166 -37.5t158.5 -111t101 -166t-7.5 -202.5q-21 -57 -73.5 -102t-124.5 -71t-159 -39.5t-178.5 -7.5t-181.5 24.5 t-169 58.5t-139.5 92.5t-96 127.5t-35.5 163zM381 1536l213 301h96l213 -301h-96l-164 233l-166 -233h-96z" />
<glyph unicode="&#xcb;" horiz-adv-x="1239" d="M6 412q0 73 24 133t65 99t94.5 70t113 46.5t121.5 27t118.5 12.5t104 4t78.5 -1h11.5h8.5h9v12q-29 1 -53.5 2.5t-80 7t-102 13.5t-109.5 24t-113 36t-102 51t-86.5 69t-56.5 90t-22 113q0 35 6.5 72t25 80t47.5 76t79.5 55t115.5 22q79 1 156.5 -25.5t139 -64.5 t118.5 -76t118.5 -65t116.5 -27q46 0 87 38.5t53.5 91.5t-9.5 109l9 2q28 -44 48.5 -132.5t20.5 -186.5q0 -38 -5 -72.5t-16.5 -67.5t-33.5 -53t-53 -20t-62.5 23.5t-60 61t-59.5 83t-67 91t-75.5 83t-92 61t-110.5 23.5q-18 0 -38 -2.5t-48 -9.5t-51 -20.5t-47 -35 t-34.5 -52t-14.5 -73.5t12 -98q22 -87 69 -142t104.5 -76t122.5 -28.5t125.5 -4.5t109.5 3.5t78.5 -13.5t29.5 -48q0 -31 -21.5 -45.5t-59.5 -14.5t-76 5t-84.5 12.5t-71.5 7.5q-77 1 -137 -38.5t-88.5 -100.5t-24 -138.5t48.5 -146.5q80 -125 191 -202.5t212.5 -94.5 t186 14.5t119.5 108.5q50 110 -50 179q-77 52 -190 55q-100 1 -131 -39q-6 -7 -8 -15q-7 -23 -1 -43.5t34 -52.5l-11 -6q-89 91 -144 210.5t-15 170.5t122 54t166 -37.5t158.5 -111t101 -166t-7.5 -202.5q-21 -57 -73.5 -102t-124.5 -71t-159 -39.5t-178.5 -7.5t-181.5 24.5 t-169 58.5t-139.5 92.5t-96 127.5t-35.5 163zM465 1618q0 35 21.5 56.5t56.5 21.5t56.5 -21.5t21.5 -56.5t-21.5 -56.5t-56.5 -21.5t-56.5 21.5t-21.5 56.5zM662 1618q0 35 21 56.5t56 21.5t56.5 -21.5t21.5 -56.5t-21.5 -56.5t-56.5 -21.5t-56 21.5t-21 56.5z" />
<glyph unicode="&#xcc;" horiz-adv-x="817" d="M-10 1116l409 422l359 -221l-150 -184v-469l-252 -281l252 -152q94 0 197 140l20 -17l-409 -422l-359 222l228 280v795q-45 10 -84 10q-90 0 -191 -139zM276 1892h97l213 -301h-97z" />
<glyph unicode="&#xcd;" horiz-adv-x="817" d="M-10 1116l409 422l359 -221l-150 -184v-469l-252 -281l252 -152q94 0 197 140l20 -17l-409 -422l-359 222l228 280v795q-45 10 -84 10q-90 0 -191 -139zM276 1591l213 301h97l-213 -301h-97z" />
<glyph unicode="&#xce;" horiz-adv-x="817" d="M-10 1116l409 422l359 -221l-150 -184v-469l-252 -281l252 -152q94 0 197 140l20 -17l-409 -422l-359 222l228 280v795q-45 10 -84 10q-90 0 -191 -139zM137 1591l213 301h96l213 -301h-96l-164 234l-166 -234h-96z" />
<glyph unicode="&#xcf;" horiz-adv-x="817" d="M-10 1116l409 422l359 -221l-150 -184v-469l-252 -281l252 -152q94 0 197 140l20 -17l-409 -422l-359 222l228 280v795q-45 10 -84 10q-90 0 -191 -139zM221 1673q0 35 21.5 56.5t56.5 21.5t56.5 -21.5t21.5 -56.5t-21.5 -56.5t-56.5 -21.5t-56.5 21.5t-21.5 56.5z M418 1673q0 35 21.5 56.5t56.5 21.5t56 -21.5t21 -56.5t-21 -56.5t-56 -21.5t-56.5 21.5t-21.5 56.5z" />
<glyph unicode="&#xd1;" horiz-adv-x="1865" d="M-82 -84l78 518q65 -3 135.5 31.5t135 92t133 141.5t125 169t115 186t100.5 182t83 167q-54 4 -57 4q-63 0 -120.5 -24t-100.5 -63t-82.5 -85.5t-72.5 -93t-63.5 -85.5t-63 -63t-64.5 -24q-33 0 -56.5 20.5t-35.5 54.5t-17.5 69.5t-5.5 74.5q0 102 22 195t52 139l12 -4 q-12 -39 -5.5 -82.5t23.5 -80.5t47.5 -61t65.5 -24q48 0 100 20t95.5 50t98.5 65t108 64.5t125.5 49t148.5 19.5q122 -1 214.5 -67t121 -183t-50.5 -278q-31 -60 -97.5 -159t-133.5 -195.5t-131.5 -198.5t-105 -197.5t-40.5 -163.5q0 -69 37.5 -123.5t107.5 -54.5 q94 0 163.5 64.5t108.5 166.5t73.5 246.5t57.5 283t61.5 300t84.5 276.5q24 60 74 108t109.5 76.5t130 47.5t131 26t118.5 7h301l-4 -19h-36.5h-37t-32.5 -0.5t-35 -2t-31.5 -4t-34 -6t-32 -9t-35.5 -13t-35 -16.5q-84 -45 -164 -168.5t-144 -280.5t-121.5 -314.5 t-117.5 -303.5t-111 -215q-200 -274 -444 -274q-43 0 -95.5 13t-109.5 42.5t-103.5 71t-77 105.5t-30.5 138q0 79 34.5 150.5t93 128t129.5 108t149 100t147.5 94.5t128.5 101t88 111q45 86 31 174q-6 37 -51.5 68.5t-113.5 51t-130.5 31.5t-126.5 19 q-56 -111 -121.5 -254.5t-115.5 -260.5t-110 -247.5t-110.5 -231.5t-110.5 -196.5t-117 -157.5t-123 -99.5t-134 -37.5zM1063 1559v59q15 28 52 33.5t81.5 -3.5t88.5 -18t81 -3.5t51 32.5v-60q-17 -35 -69.5 -36t-107 14.5t-107 15t-70.5 -33.5z" />
<glyph unicode="&#xd2;" horiz-adv-x="1570" d="M-110.5 1016.5q7.5 116.5 69.5 195.5q42 54 92.5 68t98 -5.5t94 -59.5t82 -89t59.5 -100h-6q-29 61 -87.5 82.5t-126 -2.5t-120.5 -90q-43 -53 -60 -115t-8.5 -122.5t41.5 -119t85.5 -105.5t129 -80.5t166.5 -45.5q-106 26 -106 55q0 138 41 275t111.5 252t166 215 t202.5 169t224 108.5t228 39.5q55 0 111.5 -21t108 -61.5t84 -111.5t32.5 -160q0 -104 -45 -205t-121.5 -184.5t-179.5 -155.5t-218.5 -123t-238 -82t-238.5 -37q-13 -479 199 -479q47 0 90 14.5t76.5 37t65 57.5t53 66.5t42.5 75.5t33 72.5t24.5 68.5t16.5 54t10 38 q21 84 41 200q81 51 137 96t132 121v-116q-5 -128 -53 -253t-124.5 -223t-169 -173.5t-190.5 -116.5t-184 -41q-107 0 -190.5 39.5t-138.5 112t-87.5 166.5t-46.5 212q-135 43 -233.5 142.5t-140 213.5t-34 230.5zM560.5 458q0.5 -32 0.5 -36q169 6 342.5 63.5t317.5 153.5 q29 123 43.5 211t15.5 164t-17 123.5t-57 77t-102 36.5q-76 9 -141.5 -16.5t-110.5 -75.5t-79.5 -114.5t-53.5 -136.5t-27.5 -137t-5.5 -120l-14 4q-1 73 11.5 157t45 175t80.5 162t124 115t169 39q95 -5 169.5 -44.5t118 -101t66 -132.5t23.5 -146q108 149 108 305 q0 83 -30.5 148.5t-81 105t-111.5 60t-127 20.5q-140 0 -266.5 -93t-218.5 -249t-146 -355q-13 -50 -22.5 -99t-14 -82.5t-6.5 -73.5t-2.5 -58t0 -50zM768 1901h96l213 -302h-96z" />
<glyph unicode="&#xd3;" horiz-adv-x="1570" d="M-110.5 1016.5q7.5 116.5 69.5 195.5q42 54 92.5 68t98 -5.5t94 -59.5t82 -89t59.5 -100h-6q-29 61 -87.5 82.5t-126 -2.5t-120.5 -90q-43 -53 -60 -115t-8.5 -122.5t41.5 -119t85.5 -105.5t129 -80.5t166.5 -45.5q-106 26 -106 55q0 138 41 275t111.5 252t166 215 t202.5 169t224 108.5t228 39.5q55 0 111.5 -21t108 -61.5t84 -111.5t32.5 -160q0 -104 -45 -205t-121.5 -184.5t-179.5 -155.5t-218.5 -123t-238 -82t-238.5 -37q-13 -479 199 -479q47 0 90 14.5t76.5 37t65 57.5t53 66.5t42.5 75.5t33 72.5t24.5 68.5t16.5 54t10 38 q21 84 41 200q81 51 137 96t132 121v-116q-5 -128 -53 -253t-124.5 -223t-169 -173.5t-190.5 -116.5t-184 -41q-107 0 -190.5 39.5t-138.5 112t-87.5 166.5t-46.5 212q-135 43 -233.5 142.5t-140 213.5t-34 230.5zM560.5 458q0.5 -32 0.5 -36q169 6 342.5 63.5t317.5 153.5 q29 123 43.5 211t15.5 164t-17 123.5t-57 77t-102 36.5q-76 9 -141.5 -16.5t-110.5 -75.5t-79.5 -114.5t-53.5 -136.5t-27.5 -137t-5.5 -120l-14 4q-1 73 11.5 157t45 175t80.5 162t124 115t169 39q95 -5 169.5 -44.5t118 -101t66 -132.5t23.5 -146q108 149 108 305 q0 83 -30.5 148.5t-81 105t-111.5 60t-127 20.5q-140 0 -266.5 -93t-218.5 -249t-146 -355q-13 -50 -22.5 -99t-14 -82.5t-6.5 -73.5t-2.5 -58t0 -50zM768 1599l213 302h96l-213 -302h-96z" />
<glyph unicode="&#xd4;" horiz-adv-x="1570" d="M-110.5 1016.5q7.5 116.5 69.5 195.5q42 54 92.5 68t98 -5.5t94 -59.5t82 -89t59.5 -100h-6q-29 61 -87.5 82.5t-126 -2.5t-120.5 -90q-43 -53 -60 -115t-8.5 -122.5t41.5 -119t85.5 -105.5t129 -80.5t166.5 -45.5q-106 26 -106 55q0 138 41 275t111.5 252t166 215 t202.5 169t224 108.5t228 39.5q55 0 111.5 -21t108 -61.5t84 -111.5t32.5 -160q0 -104 -45 -205t-121.5 -184.5t-179.5 -155.5t-218.5 -123t-238 -82t-238.5 -37q-13 -479 199 -479q47 0 90 14.5t76.5 37t65 57.5t53 66.5t42.5 75.5t33 72.5t24.5 68.5t16.5 54t10 38 q21 84 41 200q81 51 137 96t132 121v-116q-5 -128 -53 -253t-124.5 -223t-169 -173.5t-190.5 -116.5t-184 -41q-107 0 -190.5 39.5t-138.5 112t-87.5 166.5t-46.5 212q-135 43 -233.5 142.5t-140 213.5t-34 230.5zM560.5 458q0.5 -32 0.5 -36q169 6 342.5 63.5t317.5 153.5 q29 123 43.5 211t15.5 164t-17 123.5t-57 77t-102 36.5q-76 9 -141.5 -16.5t-110.5 -75.5t-79.5 -114.5t-53.5 -136.5t-27.5 -137t-5.5 -120l-14 4q-1 73 11.5 157t45 175t80.5 162t124 115t169 39q95 -5 169.5 -44.5t118 -101t66 -132.5t23.5 -146q108 149 108 305 q0 83 -30.5 148.5t-81 105t-111.5 60t-127 20.5q-140 0 -266.5 -93t-218.5 -249t-146 -355q-13 -50 -22.5 -99t-14 -82.5t-6.5 -73.5t-2.5 -58t0 -50zM629 1599l213 302h96l213 -302h-96l-164 234l-166 -234h-96z" />
<glyph unicode="&#xd5;" horiz-adv-x="1570" d="M-110.5 1016.5q7.5 116.5 69.5 195.5q42 54 92.5 68t98 -5.5t94 -59.5t82 -89t59.5 -100h-6q-29 61 -87.5 82.5t-126 -2.5t-120.5 -90q-43 -53 -60 -115t-8.5 -122.5t41.5 -119t85.5 -105.5t129 -80.5t166.5 -45.5q-106 26 -106 55q0 138 41 275t111.5 252t166 215 t202.5 169t224 108.5t228 39.5q55 0 111.5 -21t108 -61.5t84 -111.5t32.5 -160q0 -104 -45 -205t-121.5 -184.5t-179.5 -155.5t-218.5 -123t-238 -82t-238.5 -37q-13 -479 199 -479q47 0 90 14.5t76.5 37t65 57.5t53 66.5t42.5 75.5t33 72.5t24.5 68.5t16.5 54t10 38 q21 84 41 200q81 51 137 96t132 121v-116q-5 -128 -53 -253t-124.5 -223t-169 -173.5t-190.5 -116.5t-184 -41q-107 0 -190.5 39.5t-138.5 112t-87.5 166.5t-46.5 212q-135 43 -233.5 142.5t-140 213.5t-34 230.5zM560.5 458q0.5 -32 0.5 -36q169 6 342.5 63.5t317.5 153.5 q29 123 43.5 211t15.5 164t-17 123.5t-57 77t-102 36.5q-76 9 -141.5 -16.5t-110.5 -75.5t-79.5 -114.5t-53.5 -136.5t-27.5 -137t-5.5 -120l-14 4q-1 73 11.5 157t45 175t80.5 162t124 115t169 39q95 -5 169.5 -44.5t118 -101t66 -132.5t23.5 -146q108 149 108 305 q0 83 -30.5 148.5t-81 105t-111.5 60t-127 20.5q-140 0 -266.5 -93t-218.5 -249t-146 -355q-13 -50 -22.5 -99t-14 -82.5t-6.5 -73.5t-2.5 -58t0 -50zM709 1622v59q15 28 52 33.5t81.5 -3.5t88.5 -18t81 -3.5t51 32.5v-59q-14 -29 -51 -34.5t-81 3.5t-88.5 18t-81.5 4 t-52 -32z" />
<glyph unicode="&#xd6;" horiz-adv-x="1570" d="M-110.5 1016.5q7.5 116.5 69.5 195.5q42 54 92.5 68t98 -5.5t94 -59.5t82 -89t59.5 -100h-6q-29 61 -87.5 82.5t-126 -2.5t-120.5 -90q-43 -53 -60 -115t-8.5 -122.5t41.5 -119t85.5 -105.5t129 -80.5t166.5 -45.5q-106 26 -106 55q0 138 41 275t111.5 252t166 215 t202.5 169t224 108.5t228 39.5q55 0 111.5 -21t108 -61.5t84 -111.5t32.5 -160q0 -104 -45 -205t-121.5 -184.5t-179.5 -155.5t-218.5 -123t-238 -82t-238.5 -37q-13 -479 199 -479q47 0 90 14.5t76.5 37t65 57.5t53 66.5t42.5 75.5t33 72.5t24.5 68.5t16.5 54t10 38 q21 84 41 200q81 51 137 96t132 121v-116q-5 -128 -53 -253t-124.5 -223t-169 -173.5t-190.5 -116.5t-184 -41q-107 0 -190.5 39.5t-138.5 112t-87.5 166.5t-46.5 212q-135 43 -233.5 142.5t-140 213.5t-34 230.5zM560.5 458q0.5 -32 0.5 -36q169 6 342.5 63.5t317.5 153.5 q29 123 43.5 211t15.5 164t-17 123.5t-57 77t-102 36.5q-76 9 -141.5 -16.5t-110.5 -75.5t-79.5 -114.5t-53.5 -136.5t-27.5 -137t-5.5 -120l-14 4q-1 73 11.5 157t45 175t80.5 162t124 115t169 39q95 -5 169.5 -44.5t118 -101t66 -132.5t23.5 -146q108 149 108 305 q0 83 -30.5 148.5t-81 105t-111.5 60t-127 20.5q-140 0 -266.5 -93t-218.5 -249t-146 -355q-13 -50 -22.5 -99t-14 -82.5t-6.5 -73.5t-2.5 -58t0 -50zM713 1681q0 35 21.5 56.5t56.5 21.5t56 -21.5t21 -56.5t-21 -56t-56 -21t-56.5 21t-21.5 56zM909 1681q0 35 21.5 56.5 t56.5 21.5t56.5 -21.5t21.5 -56.5t-21.5 -56t-56.5 -21t-56.5 21t-21.5 56z" />
<glyph unicode="&#xd9;" horiz-adv-x="1425" d="M94 1331q0 103 19.5 195.5t46.5 140.5l4 -8q-34 -75 -17 -122.5t55 -70t87 -22.5q92 0 174.5 16.5t130 36.5t99.5 36.5t91 16.5v-12q-89 0 -184.5 -128.5t-163 -300t-111.5 -335.5t-44 -244q0 -70 10 -123.5t33.5 -99.5t69 -73t110.5 -33q94 -8 178.5 88t146.5 264.5 t106 380.5t66 448l369 283l8 -12q-70 -58 -108 -177t-42 -275t9.5 -317.5t44.5 -338.5l-289 -312h432l-182 -233h-598l207 233h113l49 64q13 68 11.5 158t-8 153t-14.5 152.5t-8 157.5q0 155 2 210q-35 -217 -93.5 -417t-138.5 -372t-187 -275t-224 -103q-59 0 -102 30.5 t-64.5 81.5t-31 105t-9.5 115q0 99 23.5 211t55 203.5t88 213t96 195.5t106.5 195q-85 -97 -150 -149t-128 -52q-46 0 -80 36.5t-49 85.5t-15 99zM637 1919h96l213 -301h-96z" />
<glyph unicode="&#xda;" horiz-adv-x="1425" d="M94 1331q0 103 19.5 195.5t46.5 140.5l4 -8q-34 -75 -17 -122.5t55 -70t87 -22.5q92 0 174.5 16.5t130 36.5t99.5 36.5t91 16.5v-12q-89 0 -184.5 -128.5t-163 -300t-111.5 -335.5t-44 -244q0 -70 10 -123.5t33.5 -99.5t69 -73t110.5 -33q94 -8 178.5 88t146.5 264.5 t106 380.5t66 448l369 283l8 -12q-70 -58 -108 -177t-42 -275t9.5 -317.5t44.5 -338.5l-289 -312h432l-182 -233h-598l207 233h113l49 64q13 68 11.5 158t-8 153t-14.5 152.5t-8 157.5q0 155 2 210q-35 -217 -93.5 -417t-138.5 -372t-187 -275t-224 -103q-59 0 -102 30.5 t-64.5 81.5t-31 105t-9.5 115q0 99 23.5 211t55 203.5t88 213t96 195.5t106.5 195q-85 -97 -150 -149t-128 -52q-46 0 -80 36.5t-49 85.5t-15 99zM637 1618l213 301h96l-213 -301h-96z" />
<glyph unicode="&#xdb;" horiz-adv-x="1425" d="M94 1331q0 103 19.5 195.5t46.5 140.5l4 -8q-34 -75 -17 -122.5t55 -70t87 -22.5q92 0 174.5 16.5t130 36.5t99.5 36.5t91 16.5v-12q-89 0 -184.5 -128.5t-163 -300t-111.5 -335.5t-44 -244q0 -70 10 -123.5t33.5 -99.5t69 -73t110.5 -33q94 -8 178.5 88t146.5 264.5 t106 380.5t66 448l369 283l8 -12q-70 -58 -108 -177t-42 -275t9.5 -317.5t44.5 -338.5l-289 -312h432l-182 -233h-598l207 233h113l49 64q13 68 11.5 158t-8 153t-14.5 152.5t-8 157.5q0 155 2 210q-35 -217 -93.5 -417t-138.5 -372t-187 -275t-224 -103q-59 0 -102 30.5 t-64.5 81.5t-31 105t-9.5 115q0 99 23.5 211t55 203.5t88 213t96 195.5t106.5 195q-85 -97 -150 -149t-128 -52q-46 0 -80 36.5t-49 85.5t-15 99zM498 1618l213 301h96l213 -301h-96l-164 233l-166 -233h-96z" />
<glyph unicode="&#xdc;" horiz-adv-x="1425" d="M94 1331q0 103 19.5 195.5t46.5 140.5l4 -8q-34 -75 -17 -122.5t55 -70t87 -22.5q92 0 174.5 16.5t130 36.5t99.5 36.5t91 16.5v-12q-89 0 -184.5 -128.5t-163 -300t-111.5 -335.5t-44 -244q0 -70 10 -123.5t33.5 -99.5t69 -73t110.5 -33q94 -8 178.5 88t146.5 264.5 t106 380.5t66 448l369 283l8 -12q-70 -58 -108 -177t-42 -275t9.5 -317.5t44.5 -338.5l-289 -312h432l-182 -233h-598l207 233h113l49 64q13 68 11.5 158t-8 153t-14.5 152.5t-8 157.5q0 155 2 210q-35 -217 -93.5 -417t-138.5 -372t-187 -275t-224 -103q-59 0 -102 30.5 t-64.5 81.5t-31 105t-9.5 115q0 99 23.5 211t55 203.5t88 213t96 195.5t106.5 195q-85 -97 -150 -149t-128 -52q-46 0 -80 36.5t-49 85.5t-15 99zM582 1700q0 35 21 56.5t56 21.5t56.5 -21.5t21.5 -56.5t-21.5 -56.5t-56.5 -21.5t-56 21.5t-21 56.5zM778 1700 q0 35 21.5 56.5t56.5 21.5t56.5 -21.5t21.5 -56.5t-21.5 -56.5t-56.5 -21.5t-56.5 21.5t-21.5 56.5z" />
<glyph unicode="&#xdd;" horiz-adv-x="1286" d="M18 1319q0 96 19.5 182t46.5 131l4 -6q-23 -53 -21 -91.5t25 -63t54.5 -36.5t66.5 -12q93 0 176 16t131 34.5t100 34.5t91 16l-140 -260q-39 0 -79.5 -25t-74.5 -67.5t-64 -98t-47.5 -117t-26 -123.5t1 -120t32.5 -103.5t70 -75.5t113 -36q70 -6 119.5 17t87 79.5 t62 159.5t40 245t24.5 347l428 165q-1 -1 -98 -145.5t-163 -263t-66 -168.5q0 -74 23.5 -147.5t58.5 -131t76.5 -123.5t76.5 -123.5t58.5 -130t23.5 -145.5q0 -124 -61 -246l-316 -315q-28 -31 -121 -50.5t-208 -19.5q-370 0 -375 113q-9 41 76.5 198t186.5 296t130 139 q68 -1 119 -3.5t123 -8t100 -7.5l-82 -465q-82 91 -137.5 147t-104 89.5t-81 40.5t-66 -11t-59.5 -52.5t-62 -96.5q-15 -27 -18 -50t7 -39t24.5 -28.5t40 -20.5t46.5 -13.5t51.5 -8.5t48 -4t42.5 -2q87 -3 159.5 -3.5t127.5 6.5t98 15.5t71.5 24.5t47.5 32.5t25.5 40t6.5 47 t-10 53.5t-24 59.5t-35 64.5q-32 55 -57 110.5t-42 104t-27 106t-15.5 101t-4.5 105t2.5 102t9.5 108t14 107t17 116t17 118.5q-34 -105 -61 -184.5t-60 -165t-63 -148t-65 -123.5t-72 -102t-78.5 -73.5t-89 -47.5t-99.5 -15q-280 0 -183 377q69 269 318 688 q-213 -227 -317 -227q-46 0 -80 34t-49 80t-15 93zM520 1614l213 301h96l-213 -301h-96z" />
<glyph unicode="&#xe0;" horiz-adv-x="989" d="M14 0l224 1434h485l223 -1434h-256l-47 297h-334l-47 -297h-248zM338 492h276l-137 882zM354 1837h97l213 -301h-97z" />
<glyph unicode="&#xe1;" horiz-adv-x="989" d="M14 0l224 1434h485l223 -1434h-256l-47 297h-334l-47 -297h-248zM338 492h276l-137 882zM354 1536l213 301h97l-213 -301h-97z" />
<glyph unicode="&#xe2;" horiz-adv-x="989" d="M14 0l224 1434h485l223 -1434h-256l-47 297h-334l-47 -297h-248zM215 1536l213 301h96l213 -301h-96l-164 233l-166 -233h-96zM338 492h276l-137 882z" />
<glyph unicode="&#xe3;" horiz-adv-x="989" d="M14 0l224 1434h485l223 -1434h-256l-47 297h-334l-47 -297h-248zM295 1559v59q15 28 52 33.5t81.5 -3.5t88.5 -18t81 -3.5t51 32.5v-60q-17 -35 -69.5 -36t-107 14.5t-107 15t-70.5 -33.5zM338 492h276l-137 882z" />
<glyph unicode="&#xe4;" horiz-adv-x="989" d="M14 0l224 1434h485l223 -1434h-256l-47 297h-334l-47 -297h-248zM299 1618q0 35 21.5 56.5t56.5 21.5t56.5 -21.5t21.5 -56.5t-21.5 -56.5t-56.5 -21.5t-56.5 21.5t-21.5 56.5zM338 492h276l-137 882zM496 1618q0 35 21 56.5t56 21.5t56.5 -21.5t21.5 -56.5t-21.5 -56.5 t-56.5 -21.5t-56 21.5t-21 56.5z" />
<glyph unicode="&#xe5;" horiz-adv-x="989" d="M14 0l224 1434h485l223 -1434h-256l-47 297h-334l-47 -297h-248zM309 1706q0 75 46.5 121.5t121.5 46.5t121.5 -46.5t46.5 -121.5q0 -76 -46.5 -123t-121.5 -47t-121.5 47t-46.5 123zM338 492h276l-137 882zM362 1706q0 -54 31 -85.5t84 -31.5t84 31.5t31 85.5 q0 52 -31 83.5t-84 31.5t-84 -31.5t-31 -83.5z" />
<glyph unicode="&#xe7;" horiz-adv-x="1447" d="M51 709q0 215 86 379.5t244.5 255t366.5 90.5q290 0 460 -178.5t170 -469.5h-211q-21 431 -419 431q-221 0 -354.5 -140t-133.5 -368t133.5 -368t354.5 -140q167 0 288 77.5t158 219.5h240q-57 -236 -242.5 -375t-443.5 -139q-208 0 -366.5 90.5t-244.5 255t-86 379.5z M567 -106h80q0 -31 26 -53.5t64 -22.5q70 0 70 32q0 19 -25.5 38t-55 33.5t-51 40.5t-16.5 56l68 -2q-13 -25 -2.5 -37t36.5 -26t53 -25t48 -32.5t21 -49.5q0 -41 -40 -68.5t-108 -27.5q-83 0 -125.5 41t-42.5 103z" />
<glyph unicode="&#xe8;" horiz-adv-x="1206" d="M51 0v1434h1108v-185h-856v-440h856v-184h-856l-2 -441h864v-184h-1114zM549 1837h96l213 -301h-96z" />
<glyph unicode="&#xe9;" horiz-adv-x="1206" d="M51 0v1434h1108v-185h-856v-440h856v-184h-856l-2 -441h864v-184h-1114zM549 1536l213 301h96l-213 -301h-96z" />
<glyph unicode="&#xea;" horiz-adv-x="1206" d="M51 0v1434h1108v-185h-856v-440h856v-184h-856l-2 -441h864v-184h-1114zM410 1536l213 301h96l213 -301h-96l-164 233l-166 -233h-96z" />
<glyph unicode="&#xeb;" horiz-adv-x="1206" d="M51 0v1434h1108v-185h-856v-440h856v-184h-856l-2 -441h864v-184h-1114zM494 1618q0 35 21 56.5t56 21.5t56.5 -21.5t21.5 -56.5t-21.5 -56.5t-56.5 -21.5t-56 21.5t-21 56.5zM690 1618q0 35 21.5 56.5t56.5 21.5t56.5 -21.5t21.5 -56.5t-21.5 -56.5t-56.5 -21.5 t-56.5 21.5t-21.5 56.5z" />
<glyph unicode="&#xec;" horiz-adv-x="446" d="M92 1837h96l213 -301h-96zM109 0v1434h251l2 -1434h-253z" />
<glyph unicode="&#xed;" horiz-adv-x="446" d="M92 1536l213 301h96l-213 -301h-96zM109 0v1434h251l2 -1434h-253z" />
<glyph unicode="&#xee;" horiz-adv-x="446" d="M-47 1536l213 301h96l213 -301h-96l-164 233l-166 -233h-96zM109 0v1434h251l2 -1434h-253z" />
<glyph unicode="&#xef;" horiz-adv-x="446" d="M37 1618q0 35 21.5 56.5t56.5 21.5t56.5 -21.5t21.5 -56.5t-21.5 -56.5t-56.5 -21.5t-56.5 21.5t-21.5 56.5zM109 0v1434h251l2 -1434h-253zM233 1618q0 35 21.5 56.5t56.5 21.5t56.5 -21.5t21.5 -56.5t-21.5 -56.5t-56.5 -21.5t-56.5 21.5t-21.5 56.5z" />
<glyph unicode="&#xf1;" horiz-adv-x="1386" d="M51 0v1434h473l555 -1373v1373h264l-16 -1434h-471l-543 1339l-14 -1339h-248zM516 1559v59q15 28 52 33.5t81.5 -3.5t88.5 -18t81 -3.5t51 32.5v-60q-17 -35 -69.5 -36t-107 14.5t-107 15t-70.5 -33.5z" />
<glyph unicode="&#xf2;" horiz-adv-x="1452" d="M31 709q0 326 191 525.5t505 199.5q206 0 363 -90.5t243 -255t86 -379.5t-86 -379.5t-243 -255t-363 -90.5q-314 0 -505 199.5t-191 525.5zM240 709q0 -228 133.5 -368t353.5 -140q218 0 350.5 140t132.5 368t-132.5 368t-350.5 140q-220 0 -353.5 -140t-133.5 -368z M610 1837h97l213 -301h-97z" />
<glyph unicode="&#xf3;" horiz-adv-x="1452" d="M31 709q0 326 191 525.5t505 199.5q206 0 363 -90.5t243 -255t86 -379.5t-86 -379.5t-243 -255t-363 -90.5q-314 0 -505 199.5t-191 525.5zM240 709q0 -228 133.5 -368t353.5 -140q218 0 350.5 140t132.5 368t-132.5 368t-350.5 140q-220 0 -353.5 -140t-133.5 -368z M610 1536l213 301h97l-213 -301h-97z" />
<glyph unicode="&#xf4;" horiz-adv-x="1452" d="M31 709q0 326 191 525.5t505 199.5q206 0 363 -90.5t243 -255t86 -379.5t-86 -379.5t-243 -255t-363 -90.5q-314 0 -505 199.5t-191 525.5zM240 709q0 -228 133.5 -368t353.5 -140q218 0 350.5 140t132.5 368t-132.5 368t-350.5 140q-220 0 -353.5 -140t-133.5 -368z M471 1536l213 301h96l213 -301h-96l-164 233l-166 -233h-96z" />
<glyph unicode="&#xf5;" horiz-adv-x="1452" d="M31 709q0 326 191 525.5t505 199.5q206 0 363 -90.5t243 -255t86 -379.5t-86 -379.5t-243 -255t-363 -90.5q-314 0 -505 199.5t-191 525.5zM240 709q0 -228 133.5 -368t353.5 -140q218 0 350.5 140t132.5 368t-132.5 368t-350.5 140q-220 0 -353.5 -140t-133.5 -368z M551 1559v59q15 28 52 33.5t81.5 -3.5t88.5 -18t81 -3.5t51 32.5v-60q-17 -35 -69.5 -36t-107 14.5t-107 15t-70.5 -33.5z" />
<glyph unicode="&#xf6;" horiz-adv-x="1452" d="M31 709q0 326 191 525.5t505 199.5q206 0 363 -90.5t243 -255t86 -379.5t-86 -379.5t-243 -255t-363 -90.5q-314 0 -505 199.5t-191 525.5zM240 709q0 -228 133.5 -368t353.5 -140q218 0 350.5 140t132.5 368t-132.5 368t-350.5 140q-220 0 -353.5 -140t-133.5 -368z M555 1618q0 35 21.5 56.5t56.5 21.5t56.5 -21.5t21.5 -56.5t-21.5 -56.5t-56.5 -21.5t-56.5 21.5t-21.5 56.5zM752 1618q0 35 21 56.5t56 21.5t56.5 -21.5t21.5 -56.5t-21.5 -56.5t-56.5 -21.5t-56 21.5t-21 56.5z" />
<glyph unicode="&#xf8;" horiz-adv-x="1452" d="M31 709q0 326 191 525.5t505 199.5q206 0 363 -90.5t243 -255t86 -379.5t-86 -379.5t-243 -255t-363 -90.5q-314 0 -505 199.5t-191 525.5zM240 709q0 -228 133.5 -368t353.5 -140q218 0 350.5 140t132.5 368t-132.5 368t-350.5 140q-220 0 -353.5 -140t-133.5 -368z M244 0l807 1432h159l-807 -1432h-159z" />
<glyph unicode="&#xf9;" horiz-adv-x="1286" d="M90 539v891h250v-867q0 -84 26 -152t69 -110.5t98 -66t112 -24.5t112 21.5t98 64.5t69 111.5t26 155.5v867h250v-891q0 -130 -47.5 -235t-125.5 -170t-178 -101t-204 -36.5t-204 34.5t-178 100t-125.5 171t-47.5 237zM492 1837h96l213 -301h-96z" />
<glyph unicode="&#xfa;" horiz-adv-x="1286" d="M90 539v891h250v-867q0 -84 26 -152t69 -110.5t98 -66t112 -24.5t112 21.5t98 64.5t69 111.5t26 155.5v867h250v-891q0 -130 -47.5 -235t-125.5 -170t-178 -101t-204 -36.5t-204 34.5t-178 100t-125.5 171t-47.5 237zM492 1536l213 301h96l-213 -301h-96z" />
<glyph unicode="&#xfb;" horiz-adv-x="1286" d="M90 539v891h250v-867q0 -84 26 -152t69 -110.5t98 -66t112 -24.5t112 21.5t98 64.5t69 111.5t26 155.5v867h250v-891q0 -130 -47.5 -235t-125.5 -170t-178 -101t-204 -36.5t-204 34.5t-178 100t-125.5 171t-47.5 237zM352 1536l213 301h97l212 -301h-96l-164 233 l-165 -233h-97z" />
<glyph unicode="&#xfc;" horiz-adv-x="1286" d="M90 539v891h250v-867q0 -84 26 -152t69 -110.5t98 -66t112 -24.5t112 21.5t98 64.5t69 111.5t26 155.5v867h250v-891q0 -130 -47.5 -235t-125.5 -170t-178 -101t-204 -36.5t-204 34.5t-178 100t-125.5 171t-47.5 237zM436 1618q0 35 21.5 56.5t56.5 21.5t56.5 -21.5 t21.5 -56.5t-21.5 -56.5t-56.5 -21.5t-56.5 21.5t-21.5 56.5zM633 1618q0 35 21.5 56.5t56.5 21.5t56 -21.5t21 -56.5t-21 -56.5t-56 -21.5t-56.5 21.5t-21.5 56.5z" />
<glyph unicode="&#xfd;" horiz-adv-x="1159" d="M80 1434h258l219 -893l221 893h258l-237 -947h-117v-487h-252v487h-117zM440 1536l213 301h97l-213 -301h-97z" />
<glyph unicode="&#xff;" horiz-adv-x="1159" d="M80 1434h258l219 -893l221 893h258l-237 -947h-117v-487h-252v487h-117zM385 1618q0 35 21.5 56.5t56.5 21.5t56.5 -21.5t21.5 -56.5t-21.5 -56.5t-56.5 -21.5t-56.5 21.5t-21.5 56.5zM582 1618q0 35 21 56.5t56 21.5t56.5 -21.5t21.5 -56.5t-21.5 -56.5t-56.5 -21.5 t-56 21.5t-21 56.5z" />
<glyph unicode="&#x2c6;" horiz-adv-x="571" d="M27 1235l213 301h96l213 -301h-96l-164 233l-166 -233h-96z" />
<glyph unicode="&#x2dc;" horiz-adv-x="466" d="M53 1255v60q15 28 52 33.5t81.5 -3.5l89 -18t81.5 -3.5t51 32.5v-60q-14 -29 -51 -34.5t-81.5 3.5l-89 18t-81.5 4t-52 -32z" />
<glyph unicode="&#x2000;" horiz-adv-x="959" />
<glyph unicode="&#x2001;" horiz-adv-x="1919" />
<glyph unicode="&#x2002;" horiz-adv-x="959" />
<glyph unicode="&#x2003;" horiz-adv-x="1919" />
<glyph unicode="&#x2004;" horiz-adv-x="639" />
<glyph unicode="&#x2005;" horiz-adv-x="479" />
<glyph unicode="&#x2006;" horiz-adv-x="319" />
<glyph unicode="&#x2007;" horiz-adv-x="319" />
<glyph unicode="&#x2008;" horiz-adv-x="239" />
<glyph unicode="&#x2009;" horiz-adv-x="383" />
<glyph unicode="&#x200a;" horiz-adv-x="106" />
<glyph unicode="&#x2010;" horiz-adv-x="1007" d="M39 432v162h903v-162h-903z" />
<glyph unicode="&#x2011;" horiz-adv-x="1007" d="M39 432v162h903v-162h-903z" />
<glyph unicode="&#x2012;" horiz-adv-x="1007" d="M39 432v162h903v-162h-903z" />
<glyph unicode="&#x2013;" horiz-adv-x="1128" d="M39 432v162h1024v-162h-1024z" />
<glyph unicode="&#x2014;" horiz-adv-x="2152" d="M39 432v162h2048v-162h-2048z" />
<glyph unicode="&#x202f;" horiz-adv-x="383" />
<glyph unicode="&#x205f;" horiz-adv-x="479" />
<glyph unicode="&#x25fc;" horiz-adv-x="1433" d="M0 0v1434h1434v-1434h-1434z" />
</font>
</defs>
</svg>
